<svg viewBox="0 0 300 300" fill="none" xmlns="http://www.w3.org/2000/svg">
  <!-- Ocean circle -->
  <circle cx="150" cy="150" r="140" stroke="#F38020" stroke-width="1.2" opacity="0.5" fill="none"/>
  <!-- Graticule - latitude lines every 30 degrees -->
  <path d="M78.7,270.5 L82.2,272.5 L85.8,274.3 L89.4,276.1 L93.1,277.8 L96.9,279.3 L100.7,280.8 L104.6,282.1 L108.5,283.3 L112.5,284.4 L116.6,285.4 L120.7,286.3 L124.8,287.1 L128.9,287.7 L133.1,288.3 L137.3,288.7 L141.5,289.0 L145.8,289.2 L150.0,289.2 L154.2,289.2 L158.5,289.0 L162.7,288.7 L166.9,288.3 L171.1,287.7 L175.2,287.1 L179.3,286.3 L183.4,285.4 L187.5,284.4 L191.5,283.3 L195.4,282.1 L199.3,280.8 L203.1,279.3 L206.9,277.8 L210.6,276.1 L214.2,274.3 L217.8,272.5 L221.3,270.5" stroke="#F38020" stroke-width="0.3" opacity="0.15"/>
  <path d="M10.0,150.0 L10.1,154.0 L10.3,157.9 L10.8,161.8 L11.4,165.8 L12.1,169.7 L13.1,173.5 L14.2,177.4 L15.4,181.2 L16.9,185.0 L18.4,188.7 L20.2,192.4 L22.1,196.1 L24.2,199.7 L26.4,203.2 L28.8,206.6 L31.3,210.0 L33.9,213.3 L36.7,216.6 L39.7,219.7 L42.8,222.8 L46.0,225.8 L49.3,228.7 L52.7,231.5 L56.3,234.2 L60.0,236.8 L63.8,239.3 L67.7,241.6 L71.7,243.9 L75.8,246.1 L80.0,248.1 L84.3,250.0 L88.6,251.8 L93.1,253.5 L97.6,255.0 L102.1,256.4 L106.7,257.7 L111.4,258.9 L116.1,259.9 L120.9,260.8 L125.7,261.5 L130.5,262.2 L135.4,262.6 L140.2,263.0 L145.1,263.2 L150.0,263.3 L154.9,263.2 L159.8,263.0 L164.6,262.6 L169.5,262.2 L174.3,261.5 L179.1,260.8 L183.9,259.9 L188.6,258.9 L193.3,257.7 L197.9,256.4 L202.4,255.0 L206.9,253.5 L211.4,251.8 L215.7,250.0 L220.0,248.1 L224.2,246.1 L228.3,243.9 L232.3,241.6 L236.2,239.3 L240.0,236.8 L243.7,234.2 L247.3,231.5 L250.7,228.7 L254.0,225.8 L257.2,222.8 L260.3,219.7 L263.3,216.6 L266.1,213.3 L268.7,210.0 L271.2,206.6 L273.6,203.2 L275.8,199.7 L277.9,196.1 L279.8,192.4 L281.6,188.7 L283.1,185.0 L284.6,181.2 L285.8,177.4 L286.9,173.5 L287.9,169.7 L288.6,165.8 L289.2,161.8 L289.7,157.9 L289.9,154.0 L290.0,150.0" stroke="#F38020" stroke-width="0.3" opacity="0.15"/>
  <path d="M75.4,31.6 L72.1,33.7 L68.9,36.0 L65.8,38.3 L62.8,40.7 L59.9,43.2 L57.1,45.8 L54.5,48.5 L51.9,51.2 L49.5,54.0 L47.2,56.9 L45.0,59.8 L42.9,62.8 L41.0,65.9 L39.2,69.0 L37.6,72.1 L36.1,75.3 L34.7,78.5 L33.5,81.8 L32.4,85.1 L31.4,88.5 L30.6,91.8 L29.9,95.2 L29.4,98.6 L29.1,102.0 L28.8,105.4 L28.8,108.9 L28.8,112.3 L29.1,115.7 L29.4,119.1 L29.9,122.5 L30.6,125.9 L31.4,129.2 L32.4,132.6 L33.5,135.9 L34.7,139.2 L36.1,142.4 L37.6,145.6 L39.2,148.8 L41.0,151.9 L42.9,154.9 L45.0,157.9 L47.2,160.8 L49.5,163.7 L51.9,166.5 L54.5,169.2 L57.1,171.9 L59.9,174.5 L62.8,177.0 L65.8,179.4 L68.9,181.7 L72.1,184.0 L75.4,186.1 L78.7,188.2 L82.2,190.2 L85.8,192.0 L89.4,193.8 L93.1,195.5 L96.9,197.0 L100.7,198.5 L104.6,199.8 L108.5,201.0 L112.5,202.1 L116.6,203.1 L120.7,204.0 L124.8,204.8 L128.9,205.5 L133.1,206.0 L137.3,206.4 L141.5,206.7 L145.8,206.9 L150.0,206.9 L154.2,206.9 L158.5,206.7 L162.7,206.4 L166.9,206.0 L171.1,205.5 L175.2,204.8 L179.3,204.0 L183.4,203.1 L187.5,202.1 L191.5,201.0 L195.4,199.8 L199.3,198.5 L203.1,197.0 L206.9,195.5 L210.6,193.8 L214.2,192.0 L217.8,190.2 L221.3,188.2 L224.6,186.1 L227.9,184.0 L231.1,181.7 L234.2,179.4 L237.2,177.0 L240.1,174.5 L242.9,171.9 L245.5,169.2 L248.1,166.5 L250.5,163.7 L252.8,160.8 L255.0,157.9 L257.1,154.9 L259.0,151.9 L260.8,148.8 L262.4,145.6 L263.9,142.4 L265.3,139.2 L266.5,135.9 L267.6,132.6 L268.6,129.2 L269.4,125.9 L270.1,122.5 L270.6,119.1 L270.9,115.7 L271.2,112.3 L271.2,108.9 L271.2,105.4 L270.9,102.0 L270.6,98.6 L270.1,95.2 L269.4,91.8 L268.6,88.5 L267.6,85.1 L266.5,81.8 L265.3,78.5 L263.9,75.3 L262.4,72.1 L260.8,69.0 L259.0,65.9 L257.1,62.8 L255.0,59.8 L252.8,56.9 L250.5,54.0 L248.1,51.2 L245.5,48.5 L242.9,45.8 L240.1,43.2 L237.2,40.7 L234.2,38.3 L231.1,36.0 L227.9,33.7 L224.6,31.6" stroke="#F38020" stroke-width="0.3" opacity="0.15"/>
  <path d="M150.0,22.1 L147.6,22.1 L145.1,22.2 L142.7,22.4 L140.3,22.7 L137.8,23.0 L135.4,23.3 L133.1,23.8 L130.7,24.3 L128.4,24.9 L126.1,25.5 L123.8,26.2 L121.5,27.0 L119.3,27.8 L117.1,28.7 L115.0,29.7 L112.9,30.7 L110.9,31.8 L108.9,32.9 L106.9,34.1 L105.0,35.4 L103.2,36.6 L101.4,38.0 L99.6,39.4 L98.0,40.8 L96.4,42.3 L94.8,43.9 L93.4,45.4 L92.0,47.1 L90.6,48.7 L89.4,50.4 L88.2,52.1 L87.1,53.9 L86.1,55.7 L85.1,57.5 L84.2,59.4 L83.4,61.2 L82.7,63.1 L82.1,65.0 L81.5,67.0 L81.1,68.9 L80.7,70.9 L80.4,72.8 L80.2,74.8 L80.0,76.8 L80.0,78.7 L80.0,80.7 L80.2,82.7 L80.4,84.7 L80.7,86.6 L81.1,88.6 L81.5,90.5 L82.1,92.4 L82.7,94.3 L83.4,96.2 L84.2,98.1 L85.1,99.9 L86.1,101.8 L87.1,103.6 L88.2,105.3 L89.4,107.1 L90.6,108.7 L92.0,110.4 L93.4,112.0 L94.8,113.6 L96.4,115.1 L98.0,116.6 L99.6,118.1 L101.4,119.5 L103.2,120.8 L105.0,122.1 L106.9,123.4 L108.9,124.6 L110.9,125.7 L112.9,126.8 L115.0,127.8 L117.1,128.7 L119.3,129.6 L121.5,130.5 L123.8,131.2 L126.1,132.0 L128.4,132.6 L130.7,133.2 L133.1,133.7 L135.4,134.1 L137.8,134.5 L140.3,134.8 L142.7,135.1 L145.1,135.2 L147.6,135.3 L150.0,135.4 L152.4,135.3 L154.9,135.2 L157.3,135.1 L159.7,134.8 L162.2,134.5 L164.6,134.1 L166.9,133.7 L169.3,133.2 L171.6,132.6 L173.9,132.0 L176.2,131.2 L178.5,130.5 L180.7,129.6 L182.9,128.7 L185.0,127.8 L187.1,126.8 L189.1,125.7 L191.1,124.6 L193.1,123.4 L195.0,122.1 L196.8,120.8 L198.6,119.5 L200.4,118.1 L202.0,116.6 L203.6,115.1 L205.2,113.6 L206.6,112.0 L208.0,110.4 L209.4,108.7 L210.6,107.1 L211.8,105.3 L212.9,103.6 L213.9,101.8 L214.9,99.9 L215.8,98.1 L216.6,96.2 L217.3,94.3 L217.9,92.4 L218.5,90.5 L218.9,88.6 L219.3,86.6 L219.6,84.7 L219.8,82.7 L220.0,80.7 L220.0,78.7 L220.0,76.8 L219.8,74.8 L219.6,72.8 L219.3,70.9 L218.9,68.9 L218.5,67.0 L217.9,65.0 L217.3,63.1 L216.6,61.2 L215.8,59.4 L214.9,57.5 L213.9,55.7 L212.9,53.9 L211.8,52.1 L210.6,50.4 L209.4,48.7 L208.0,47.1 L206.6,45.4 L205.2,43.9 L203.6,42.3 L202.0,40.8 L200.4,39.4 L198.6,38.0 L196.8,36.6 L195.0,35.4 L193.1,34.1 L191.1,32.9 L189.1,31.8 L187.1,30.7 L185.0,29.7 L182.9,28.7 L180.7,27.8 L178.5,27.0 L176.2,26.2 L173.9,25.5 L171.6,24.9 L169.3,24.3 L166.9,23.8 L164.6,23.3 L162.2,23.0 L159.7,22.7 L157.3,22.4 L154.9,22.2 L152.4,22.1 L150.0,22.1" stroke="#F38020" stroke-width="0.3" opacity="0.15"/>
  <path d="M150.0,10.0 L150.0,10.1 L150.0,10.3 L150.0,10.8 L150.0,11.4 L150.0,12.1 L150.0,13.1 L150.0,14.2 L150.0,15.4 L150.0,16.9 L150.0,18.4 L150.0,20.2 L150.0,22.1 L150.0,24.2 L150.0,26.4 L150.0,28.8 L150.0,31.3 L150.0,33.9 L150.0,36.7 L150.0,39.7 L150.0,42.8 L150.0,46.0 L150.0,49.3 L150.0,52.7 L150.0,56.3 L150.0,60.0 L150.0,63.8 L150.0,67.7" stroke="#F38020" stroke-width="0.3" opacity="0.15"/>
  <path d="M92.0,22.7 L93.4,22.3 L94.8,22.0 L96.4,22.0 L98.0,22.0 L99.6,22.3 L101.4,22.7 L103.2,23.2 L105.0,23.9 L106.9,24.8 L108.9,25.8 L110.9,26.9 L112.9,28.2 L115.0,29.7 L117.1,31.3 L119.3,33.0 L121.5,34.9 L123.8,37.0 L126.1,39.1 L128.4,41.4 L130.7,43.9 L133.1,46.4 L135.4,49.1 L137.8,51.9 L140.3,54.9 L142.7,57.9 L145.1,61.1 L147.6,64.3 L150.0,67.7" stroke="#F38020" stroke-width="0.3" opacity="0.15"/>
  <path d="M36.1,68.6 L37.6,66.7 L39.2,64.8 L41.0,63.0 L42.9,61.4 L45.0,59.8 L47.2,58.4 L49.5,57.0 L51.9,55.8 L54.5,54.7 L57.1,53.7 L59.9,52.9 L62.8,52.1 L65.8,51.5 L68.9,51.0 L72.1,50.6 L75.4,50.3 L78.7,50.1 L82.2,50.1 L85.8,50.2 L89.4,50.4 L93.1,50.8 L96.9,51.2 L100.7,51.8 L104.6,52.5 L108.5,53.3 L112.5,54.2 L116.6,55.3 L120.7,56.5 L124.8,57.7 L128.9,59.1 L133.1,60.6 L137.3,62.2 L141.5,64.0 L145.8,65.8 L150.0,67.7" stroke="#F38020" stroke-width="0.3" opacity="0.15"/>
  <path d="M10.0,150.0 L10.1,147.1 L10.3,144.3 L10.8,141.4 L11.4,138.5 L12.1,135.7 L13.1,132.9 L14.2,130.1 L15.4,127.3 L16.9,124.6 L18.4,121.9 L20.2,119.2 L22.1,116.5 L24.2,113.9 L26.4,111.4 L28.8,108.9 L31.3,106.4 L33.9,104.0 L36.7,101.6 L39.7,99.3 L42.8,97.1 L46.0,94.9 L49.3,92.8 L52.7,90.8 L56.3,88.8 L60.0,87.0 L63.8,85.2 L67.7,83.4 L71.7,81.8 L75.8,80.2 L80.0,78.7 L84.3,77.3 L88.6,76.0 L93.1,74.8 L97.6,73.7 L102.1,72.7 L106.7,71.7 L111.4,70.9 L116.1,70.2 L120.9,69.5 L125.7,69.0 L130.5,68.5 L135.4,68.2 L140.2,67.9 L145.1,67.8 L150.0,67.7" stroke="#F38020" stroke-width="0.3" opacity="0.15"/>
  <path d="M34.7,229.3 L33.5,227.1 L32.4,224.9 L31.4,222.5 L30.6,220.1 L29.9,217.5 L29.4,214.9 L29.1,212.2 L28.8,209.5 L28.8,206.6 L28.8,203.7 L29.1,200.8 L29.4,197.7 L29.9,194.6 L30.6,191.5 L31.4,188.3 L32.4,185.0 L33.5,181.8 L34.7,178.4 L36.1,175.1 L37.6,171.7 L39.2,168.3 L41.0,164.8 L42.9,161.4 L45.0,157.9 L47.2,154.4 L49.5,150.9 L51.9,147.4 L54.5,144.0 L57.1,140.5 L59.9,137.0 L62.8,133.6 L65.8,130.1 L68.9,126.7 L72.1,123.4 L75.4,120.0 L78.7,116.7 L82.2,113.4 L85.8,110.2 L89.4,107.1 L93.1,103.9 L96.9,100.9 L100.7,97.9 L104.6,94.9 L108.5,92.0 L112.5,89.2 L116.6,86.5 L120.7,83.9 L124.8,81.3 L128.9,78.8 L133.1,76.4 L137.3,74.1 L141.5,71.9 L145.8,69.7 L150.0,67.7" stroke="#F38020" stroke-width="0.3" opacity="0.15"/>
  <path d="M90.6,276.8 L89.4,276.1 L88.2,275.2 L87.1,274.2 L86.1,273.1 L85.1,271.8 L84.2,270.3 L83.4,268.7 L82.7,267.0 L82.1,265.1 L81.5,263.1 L81.1,260.9 L80.7,258.6 L80.4,256.2 L80.2,253.6 L80.0,250.9 L80.0,248.1 L80.0,245.2 L80.2,242.1 L80.4,238.9 L80.7,235.7 L81.1,232.3 L81.5,228.8 L82.1,225.3 L82.7,221.6 L83.4,217.9 L84.2,214.0 L85.1,210.1 L86.1,206.1 L87.1,202.1 L88.2,198.0 L89.4,193.8 L90.6,189.6 L92.0,185.3 L93.4,181.0 L94.8,176.6 L96.4,172.2 L98.0,167.8 L99.6,163.4 L101.4,158.9 L103.2,154.5 L105.0,150.0 L106.9,145.5 L108.9,141.1 L110.9,136.6 L112.9,132.2 L115.0,127.8 L117.1,123.4 L119.3,119.0 L121.5,114.7 L123.8,110.4 L126.1,106.2 L128.4,102.0 L130.7,97.9 L133.1,93.9 L135.4,89.9 L137.8,86.0 L140.3,82.2 L142.7,78.4 L145.1,74.8 L147.6,71.2 L150.0,67.7" stroke="#F38020" stroke-width="0.3" opacity="0.15"/>
  <path d="M150.0,290.0 L150.0,289.9 L150.0,289.7 L150.0,289.2 L150.0,288.6 L150.0,287.9 L150.0,286.9 L150.0,285.8 L150.0,284.6 L150.0,283.1 L150.0,281.6 L150.0,279.8 L150.0,277.9 L150.0,275.8 L150.0,273.6 L150.0,271.2 L150.0,268.7 L150.0,266.1 L150.0,263.3 L150.0,260.3 L150.0,257.2 L150.0,254.0 L150.0,250.7 L150.0,247.3 L150.0,243.7 L150.0,240.0 L150.0,236.2 L150.0,232.3 L150.0,228.3 L150.0,224.2 L150.0,220.0 L150.0,215.7 L150.0,211.4 L150.0,206.9 L150.0,202.4 L150.0,197.9 L150.0,193.3 L150.0,188.6 L150.0,183.9 L150.0,179.1 L150.0,174.3 L150.0,169.5 L150.0,164.6 L150.0,159.8 L150.0,154.9 L150.0,150.0 L150.0,145.1 L150.0,140.2 L150.0,135.4 L150.0,130.5 L150.0,125.7 L150.0,120.9 L150.0,116.1 L150.0,111.4 L150.0,106.7 L150.0,102.1 L150.0,97.6 L150.0,93.1 L150.0,88.6 L150.0,84.3 L150.0,80.0 L150.0,75.8 L150.0,71.7 L150.0,67.7" stroke="#F38020" stroke-width="0.3" opacity="0.15"/>
  <path d="M209.4,276.8 L210.6,276.1 L211.8,275.2 L212.9,274.2 L213.9,273.1 L214.9,271.8 L215.8,270.3 L216.6,268.7 L217.3,267.0 L217.9,265.1 L218.5,263.1 L218.9,260.9 L219.3,258.6 L219.6,256.2 L219.8,253.6 L220.0,250.9 L220.0,248.1 L220.0,245.2 L219.8,242.1 L219.6,238.9 L219.3,235.7 L218.9,232.3 L218.5,228.8 L217.9,225.3 L217.3,221.6 L216.6,217.9 L215.8,214.0 L214.9,210.1 L213.9,206.1 L212.9,202.1 L211.8,198.0 L210.6,193.8 L209.4,189.6 L208.0,185.3 L206.6,181.0 L205.2,176.6 L203.6,172.2 L202.0,167.8 L200.4,163.4 L198.6,158.9 L196.8,154.5 L195.0,150.0 L193.1,145.5 L191.1,141.1 L189.1,136.6 L187.1,132.2 L185.0,127.8 L182.9,123.4 L180.7,119.0 L178.5,114.7 L176.2,110.4 L173.9,106.2 L171.6,102.0 L169.3,97.9 L166.9,93.9 L164.6,89.9 L162.2,86.0 L159.7,82.2 L157.3,78.4 L154.9,74.8 L152.4,71.2 L150.0,67.7" stroke="#F38020" stroke-width="0.3" opacity="0.15"/>
  <path d="M265.3,229.3 L266.5,227.1 L267.6,224.9 L268.6,222.5 L269.4,220.1 L270.1,217.5 L270.6,214.9 L270.9,212.2 L271.2,209.5 L271.2,206.6 L271.2,203.7 L270.9,200.8 L270.6,197.7 L270.1,194.6 L269.4,191.5 L268.6,188.3 L267.6,185.0 L266.5,181.8 L265.3,178.4 L263.9,175.1 L262.4,171.7 L260.8,168.3 L259.0,164.8 L257.1,161.4 L255.0,157.9 L252.8,154.4 L250.5,150.9 L248.1,147.4 L245.5,144.0 L242.9,140.5 L240.1,137.0 L237.2,133.6 L234.2,130.1 L231.1,126.7 L227.9,123.4 L224.6,120.0 L221.3,116.7 L217.8,113.4 L214.2,110.2 L210.6,107.1 L206.9,103.9 L203.1,100.9 L199.3,97.9 L195.4,94.9 L191.5,92.0 L187.5,89.2 L183.4,86.5 L179.3,83.9 L175.2,81.3 L171.1,78.8 L166.9,76.4 L162.7,74.1 L158.5,71.9 L154.2,69.7 L150.0,67.7" stroke="#F38020" stroke-width="0.3" opacity="0.15"/>
  <path d="M290.0,150.0 L289.9,147.1 L289.7,144.3 L289.2,141.4 L288.6,138.5 L287.9,135.7 L286.9,132.9 L285.8,130.1 L284.6,127.3 L283.1,124.6 L281.6,121.9 L279.8,119.2 L277.9,116.5 L275.8,113.9 L273.6,111.4 L271.2,108.9 L268.7,106.4 L266.1,104.0 L263.3,101.6 L260.3,99.3 L257.2,97.1 L254.0,94.9 L250.7,92.8 L247.3,90.8 L243.7,88.8 L240.0,87.0 L236.2,85.2 L232.3,83.4 L228.3,81.8 L224.2,80.2 L220.0,78.7 L215.7,77.3 L211.4,76.0 L206.9,74.8 L202.4,73.7 L197.9,72.7 L193.3,71.7 L188.6,70.9 L183.9,70.2 L179.1,69.5 L174.3,69.0 L169.5,68.5 L164.6,68.2 L159.8,67.9 L154.9,67.8 L150.0,67.7" stroke="#F38020" stroke-width="0.3" opacity="0.15"/>
  <path d="M263.9,68.6 L262.4,66.7 L260.8,64.8 L259.0,63.0 L257.1,61.4 L255.0,59.8 L252.8,58.4 L250.5,57.0 L248.1,55.8 L245.5,54.7 L242.9,53.7 L240.1,52.9 L237.2,52.1 L234.2,51.5 L231.1,51.0 L227.9,50.6 L224.6,50.3 L221.3,50.1 L217.8,50.1 L214.2,50.2 L210.6,50.4 L206.9,50.8 L203.1,51.2 L199.3,51.8 L195.4,52.5 L191.5,53.3 L187.5,54.2 L183.4,55.3 L179.3,56.5 L175.2,57.7 L171.1,59.1 L166.9,60.6 L162.7,62.2 L158.5,64.0 L154.2,65.8 L150.0,67.7" stroke="#F38020" stroke-width="0.3" opacity="0.15"/>
  <path d="M208.0,22.7 L206.6,22.3 L205.2,22.0 L203.6,22.0 L202.0,22.0 L200.4,22.3 L198.6,22.7 L196.8,23.2 L195.0,23.9 L193.1,24.8 L191.1,25.8 L189.1,26.9 L187.1,28.2 L185.0,29.7 L182.9,31.3 L180.7,33.0 L178.5,34.9 L176.2,37.0 L173.9,39.1 L171.6,41.4 L169.3,43.9 L166.9,46.4 L164.6,49.1 L162.2,51.9 L159.7,54.9 L157.3,57.9 L154.9,61.1 L152.4,64.3 L150.0,67.7" stroke="#F38020" stroke-width="0.3" opacity="0.15"/>
  <!-- Land masses (dimmed) -->
  <path d="M254.3,240.0 L254.0,241.0 L254.2,241.2 L253.8,241.8 L253.4,242.4 L253.2,242.3 L252.7,242.8 L252.6,243.3 L252.3,243.9 L251.7,244.5 L251.2,245.4 L249.9,247.1 L248.3,249.0 L246.1,251.5 L244.5,253.1 L243.0,254.6 L241.6,255.8 L239.9,257.3 L239.2,257.8 L238.2,258.6 L238.1,258.5 L238.6,258.0 L238.6,257.8 L238.9,257.4 L239.7,256.6 L240.5,255.8 L240.7,255.5 L242.0,254.3 L242.5,253.6 L242.4,253.5 L242.4,253.2 L242.7,252.4 L243.6,251.4 L244.1,250.6 L245.0,249.9 L246.0,249.0 L246.7,248.3 L247.4,247.7 L248.6,246.3 L250.2,244.5 L250.9,243.5 L250.9,243.3 L251.5,242.8 L252.7,241.2 L252.9,240.5 L253.6,239.6 L254.0,239.5 L254.2,239.6 L254.3,240.0Z" fill="#F38020" opacity="0.25"/>
  <path d="M288.9,132.3 L288.8,131.7 L288.6,130.5Z" fill="#F38020" opacity="0.25"/>
  <path d="M287.6,158.3 L287.3,160.3 L286.9,160.1 L286.3,158.3 L285.9,155.1 L286.4,154.5 L286.8,154.7 L287.4,155.3 L287.6,157.1 L287.6,158.3Z" fill="#F38020" opacity="0.25"/>
  <path d="M29.5,189.7 L28.5,188.5 L28.4,188.0 L28.8,188.1 L28.9,187.4 L29.6,188.2 L29.9,188.6 L29.5,189.7Z" fill="#F38020" opacity="0.25"/>
  <path d="M28.9,168.7 L28.5,168.7 L27.8,167.4 L27.2,166.4 L27.5,165.6 L27.7,165.7 L28.5,167.1 L28.9,168.1 L28.9,168.7Z" fill="#F38020" opacity="0.25"/>
  <path d="M20.2,149.2 L19.9,148.9 L19.8,147.6 L19.8,146.0 L20.0,145.9 L20.3,146.6 L20.3,147.0 L20.6,148.4 L20.7,149.7 L20.6,150.4 L20.2,149.2Z" fill="#F38020" opacity="0.25"/>
  <path d="M24.4,153.9 L24.9,155.7 L25.1,155.7 L25.7,157.0 L25.9,158.5 L26.1,158.9 L26.0,159.8 L26.5,160.7 L26.2,161.1 L26.6,162.0 L26.7,163.4 L26.1,163.4 L25.9,162.2 L25.5,161.5 L25.2,160.8 L25.0,160.8 L24.6,160.2 L24.7,159.6 L24.3,159.2 L23.5,159.6 L23.4,158.8 L23.6,158.3 L23.3,156.9 L22.9,156.1 L22.5,154.9 L22.1,154.4 L22.0,152.9 L22.3,152.6 L22.8,154.4 L23.2,155.9 L23.6,156.2 L23.6,154.7 L23.9,154.2 L23.6,152.8 L24.0,152.8 L24.4,153.9Z" fill="#F38020" opacity="0.25"/>
  <path d="M274.4,86.4 L275.4,88.4 L275.8,89.5 L275.2,88.6 L274.4,87.2 L273.4,85.0 L272.9,84.0 L273.0,84.0 L273.7,85.3 L274.4,86.4Z" fill="#F38020" opacity="0.25"/>
  <path d="M23.0,136.9 L22.8,138.1 L23.3,139.6 L23.3,140.6 L23.1,143.0 L23.1,144.8 L23.3,145.4 L23.4,146.8 L23.1,147.1 L23.5,148.5 L23.7,150.4 L23.4,150.6 L22.9,149.6 L22.5,148.5 L22.1,147.1 L21.3,144.6 L22.1,145.0 L22.1,143.9 L21.9,142.6 L22.0,141.6 L22.3,140.3 L22.1,139.3 L21.9,137.3 L22.0,136.4 L21.7,133.8 L21.8,132.9 L22.1,133.2 L21.9,131.4 L21.2,130.8 L21.1,130.1 L20.8,130.2 L20.6,129.4 L20.6,128.5 L21.0,129.0 L21.4,128.9 L21.7,129.4 L22.0,130.1 L22.3,131.3 L22.5,131.6 L22.7,133.3 L23.0,134.7 L23.0,136.9Z" fill="#F38020" opacity="0.25"/>
  <path d="M24.9,139.2 L24.7,138.9 L25.2,137.6 L25.3,136.5 L26.0,135.9 L26.1,136.5 L25.4,138.3 L24.9,139.2Z" fill="#F38020" opacity="0.25"/>
  <path d="M260.4,64.1 L261.6,65.5 L261.5,65.5 L261.0,65.0 L259.5,63.2 L257.9,61.3 L257.7,60.9 L258.4,61.7 L260.4,64.1Z" fill="#F38020" opacity="0.25"/>
  <path d="M27.6,134.6 L27.0,132.9 L27.3,132.2 L27.6,132.9 L27.9,134.1 L27.6,134.6Z" fill="#F38020" opacity="0.25"/>
  <path d="M28.0,136.0 L27.2,136.7 L27.2,136.2 L27.8,135.5 L28.0,134.1 L28.1,133.9 L28.0,136.0Z" fill="#F38020" opacity="0.25"/>
  <path d="M232.4,37.9 L232.6,37.9 L234.0,38.9 L234.2,39.2 L235.2,39.9 L236.1,40.5 L236.8,41.2 L236.3,40.9 L234.9,40.0 L234.3,39.4 L233.3,38.7 L232.4,37.9Z" fill="#F38020" opacity="0.25"/>
  <path d="M214.5,177.8 L213.8,179.3 L214.0,179.6 L214.2,179.8 L212.8,181.5 L211.8,181.7 L211.1,181.0 L211.9,180.5 L212.0,180.5 L212.1,179.8 L213.3,179.2 L214.5,177.8Z" fill="#F38020" opacity="0.25"/>
  <path d="M195.7,186.2 L196.9,186.6 L198.3,185.9 L199.6,185.6 L199.7,186.0 L200.6,185.3 L200.6,186.1 L198.0,187.3 L197.9,186.9 L195.6,187.3 L195.7,186.2Z" fill="#F38020" opacity="0.25"/>
  <path d="M179.4,184.8 L179.1,186.8 L179.5,187.4 L179.3,188.7 L177.7,188.1 L176.7,188.1 L173.9,187.4 L174.0,186.2 L176.2,186.0 L178.1,185.3 L179.4,184.8Z" fill="#F38020" opacity="0.25"/>
  <path d="M166.9,179.9 L168.1,181.4 L168.2,184.6 L167.4,184.5 L166.7,185.4 L165.9,184.9 L165.6,182.0 L165.0,180.7 L166.0,180.7 L166.9,179.9Z" fill="#F38020" opacity="0.25"/>
  <path d="M220.3,30.2 L221.6,30.7 L221.8,30.7 L223.2,31.4 L225.6,32.9 L228.3,34.8 L231.4,36.9 L232.0,37.5 L231.4,37.3 L234.0,39.4 L236.1,41.0 L237.7,42.5 L237.1,41.5 L239.7,43.3 L241.0,44.3 L241.3,44.7 L240.0,43.9 L240.6,44.6 L240.4,44.7 L238.9,43.4 L237.5,42.4 L235.6,41.0 L233.9,39.8 L230.9,37.4 L229.6,36.2 L226.3,34.5 L225.9,34.0 L222.8,32.2 L221.5,31.5 L219.4,30.7 L218.5,30.7 L217.3,30.2 L215.6,29.2 L216.2,28.8 L217.0,28.9 L219.3,30.0 L220.3,30.2Z" fill="#F38020" opacity="0.25"/>
  <path d="M167.2,177.6 L166.8,179.5 L166.0,179.1 L165.4,177.6 L165.7,176.6 L166.7,175.6 L167.2,177.6Z" fill="#F38020" opacity="0.25"/>
  <path d="M209.1,27.0 L208.4,26.4 L206.9,25.9 L207.7,25.6 L210.1,26.8 L212.4,27.6 L213.9,29.0 L215.8,29.5 L217.4,30.5 L216.5,30.6 L215.0,30.1 L213.5,29.2 L211.6,29.0 L210.4,28.8 L209.9,27.7 L209.1,27.0Z" fill="#F38020" opacity="0.25"/>
  <path d="M63.7,124.8 L64.0,125.9 L64.8,127.0 L63.8,127.1 L63.4,126.7 L63.1,124.5 L63.5,123.6 L64.2,123.6 L63.7,124.8Z" fill="#F38020" opacity="0.25"/>
  <path d="M69.2,122.8 L68.8,122.3 L68.4,120.3 L68.5,118.5 L68.9,118.7 L69.4,120.6 L69.5,122.5 L69.2,122.8Z" fill="#F38020" opacity="0.25"/>
  <path d="M72.7,46.9 L72.9,46.4 L75.1,44.6 L75.9,44.3 L77.3,43.3 L77.9,43.1 L79.1,42.1 L80.3,41.7 L80.6,41.8 L79.2,42.8 L78.4,43.5 L77.4,44.4 L76.6,44.8 L75.4,45.3 L73.9,46.4 L72.7,46.9Z" fill="#F38020" opacity="0.25"/>
  <path d="M76.4,126.3 L74.4,127.2 L75.5,127.3 L75.8,128.3 L74.9,128.6 L75.3,130.0 L76.1,130.1 L76.6,131.7 L75.2,132.7 L76.1,133.1 L75.5,134.2 L74.9,135.7 L73.2,136.9 L72.7,136.4 L72.3,135.4 L73.7,134.1 L73.6,133.6 L71.2,133.9 L70.7,133.2 L72.1,133.1 L71.6,131.6 L70.5,130.5 L68.9,128.3 L69.2,127.6 L70.3,127.7 L70.3,126.7 L72.0,126.6 L75.4,125.0 L76.8,124.6 L78.1,124.9 L78.4,125.5 L77.8,125.8 L76.4,126.3Z" fill="#F38020" opacity="0.25"/>
  <path d="M89.6,38.3 L89.6,38.3 L89.6,38.3 L89.6,38.3 L88.8,39.1 L87.4,38.6 L85.4,39.3 L85.8,38.9 L87.0,38.4 L88.1,38.2 L89.0,37.8 L89.8,37.8 L90.2,37.9 L89.6,38.3Z" fill="#F38020" opacity="0.25"/>
  <path d="M202.5,28.6 L203.2,27.3 L204.7,28.5 L207.1,28.6 L206.9,27.7 L207.7,27.6 L208.1,28.3 L209.8,28.7 L209.1,29.0 L207.9,29.1 L206.8,29.4 L205.7,29.4 L204.1,29.7 L203.6,30.5 L201.9,30.9 L200.3,30.4 L200.2,30.9 L199.5,30.7 L200.0,30.2 L200.7,29.6 L201.9,29.2 L202.5,28.6Z" fill="#F38020" opacity="0.25"/>
  <path d="M139.9,153.8 L137.1,154.9 L135.0,154.3 L136.5,151.9 L136.1,149.3 L138.3,147.7 L139.5,146.7 L140.6,146.7 L142.0,148.3 L141.1,149.9 L141.2,151.7 L139.9,153.8Z" fill="#F38020" opacity="0.25"/>
  <path d="M167.4,144.5 L166.9,146.6 L165.2,145.5 L164.9,144.5 L166.7,143.4 L167.4,144.5Z" fill="#F38020" opacity="0.25"/>
  <path d="M115.5,26.1 L116.3,25.4 L117.2,25.3 L117.8,25.6 L117.0,26.2 L116.6,26.6 L115.7,26.9 L114.9,26.9 L115.5,26.1Z" fill="#F38020" opacity="0.25"/>
  <path d="M146.2,138.6 L144.7,141.2 L146.0,140.9 L147.4,141.0 L147.0,142.9 L145.7,145.1 L147.1,145.3 L148.4,148.5 L149.4,148.9 L150.3,151.6 L150.7,152.6 L152.5,153.1 L152.3,154.6 L151.6,155.3 L152.2,156.6 L150.9,157.9 L148.8,157.9 L146.1,158.5 L145.4,158.0 L144.3,159.1 L142.9,158.7 L141.8,159.6 L141.0,159.0 L143.4,156.6 L144.8,156.2 L142.4,155.6 L142.1,154.6 L143.7,154.0 L143.0,152.6 L143.3,151.0 L145.5,151.4 L145.8,149.9 L144.9,148.4 L143.2,147.8 L142.9,147.2 L143.5,146.1 L143.1,145.4 L142.2,146.5 L142.4,144.1 L141.8,142.8 L142.5,140.4 L143.6,138.5 L144.6,138.7 L146.2,138.6Z" fill="#F38020" opacity="0.25"/>
  <path d="M132.5,23.8 L133.2,23.5 L134.0,23.5 L134.9,23.7 L133.8,24.0 L132.8,24.1 L132.5,23.8Z" fill="#F38020" opacity="0.25"/>
  <path d="M85.8,87.1 L84.6,87.3 L84.7,86.8 L85.2,86.2 L85.4,86.2 L86.1,86.3 L86.1,86.7 L85.8,87.1Z" fill="#F38020" opacity="0.25"/>
  <path d="M86.5,84.2 L85.1,83.6 L85.1,83.0 L85.6,82.5 L86.7,82.8 L86.9,84.0 L86.5,84.2Z" fill="#F38020" opacity="0.25"/>
  <path d="M141.1,26.7 L140.4,26.5 L139.8,26.7 L138.8,26.6 L137.7,26.6 L137.7,26.4 L138.4,26.1 L139.4,26.2 L139.8,26.3 L140.8,26.2 L141.1,26.2 L141.1,26.7Z" fill="#F38020" opacity="0.25"/>
  <path d="M92.5,79.0 L91.5,79.4 L91.9,79.7 L91.4,80.4 L90.8,81.6 L90.3,82.9 L89.2,83.3 L89.5,83.9 L88.9,84.8 L88.1,84.4 L88.4,82.8 L89.3,81.9 L88.0,81.5 L86.7,80.7 L88.0,79.9 L87.7,78.8 L88.8,79.2 L90.6,78.7 L92.6,78.3 L92.5,79.0Z" fill="#F38020" opacity="0.25"/>
  <path d="M136.0,118.4 L135.4,119.8 L136.1,121.6 L134.4,123.2 L131.0,124.1 L130.0,124.2 L128.8,123.5 L126.2,121.9 L127.6,121.2 L125.9,119.4 L127.7,119.6 L127.9,118.9 L126.2,117.7 L127.4,116.4 L128.9,116.6 L129.8,118.6 L131.6,117.7 L132.6,118.7 L134.5,117.9 L136.0,118.4Z" fill="#F38020" opacity="0.25"/>
  <path d="M97.3,84.9 L96.9,84.1 L97.9,83.5 L99.3,83.2 L99.8,83.8 L99.3,84.6 L98.4,85.0 L98.1,85.1 L97.3,84.9Z" fill="#F38020" opacity="0.25"/>
  <path d="M145.2,29.6 L144.5,29.4 L144.8,30.3 L142.2,30.3 L140.0,29.4 L140.8,28.8 L142.4,28.5 L142.2,27.3 L142.5,27.0 L143.5,27.0 L144.4,27.3 L145.8,27.6 L146.1,28.1 L147.2,28.2 L148.3,28.0 L148.9,28.4 L148.7,28.9 L149.9,28.6 L149.4,28.0 L150.0,27.5 L150.0,32.5 L147.8,31.6 L145.2,30.4 L145.2,29.6Z" fill="#F38020" opacity="0.25"/>
  <path d="M100.3,69.1 L99.6,68.8 L100.4,67.8 L100.3,67.2 L101.5,66.2 L102.0,66.7 L102.9,67.1 L102.2,67.9 L101.7,68.3 L101.2,68.6 L100.3,69.1Z" fill="#F38020" opacity="0.25"/>
  <path d="M150.0,35.1 L150.9,35.0 L151.0,35.5 L150.0,36.0 L150.0,35.1Z" fill="#F38020" opacity="0.25"/>
  <path d="M149.0,35.2 L150.0,35.1 L150.0,36.0 L149.9,36.1 L149.2,36.1 L148.1,35.7 L148.2,35.5 L149.0,35.2Z" fill="#F38020" opacity="0.25"/>
  <path d="M101.0,72.5 L98.6,73.0 L100.4,73.6 L99.0,74.8 L97.3,75.0 L95.8,76.2 L97.5,76.5 L99.5,76.4 L102.0,75.8 L101.9,76.8 L101.7,77.9 L100.8,79.2 L99.7,79.6 L98.4,79.5 L97.3,80.5 L96.2,80.8 L94.4,79.8 L93.9,78.9 L94.5,77.8 L93.3,77.9 L91.4,77.8 L90.4,77.8 L88.9,77.3 L88.7,76.1 L87.8,75.7 L86.4,76.0 L86.1,75.0 L84.4,74.4 L82.1,74.0 L80.5,74.1 L78.0,74.7 L77.6,76.3 L75.6,77.4 L74.0,78.5 L74.3,79.8 L73.5,82.1 L72.7,83.5 L71.8,84.7 L71.3,86.4 L70.6,87.9 L70.7,89.9 L70.7,91.2 L69.0,91.9 L67.1,93.3 L65.1,95.4 L63.6,98.3 L64.5,98.8 L66.6,98.3 L69.5,95.8 L70.3,94.4 L71.7,95.7 L73.4,96.1 L74.9,95.9 L76.2,95.0 L77.7,93.3 L78.9,91.3 L81.4,91.3 L83.2,89.9 L86.4,88.0 L87.0,88.4 L86.9,90.2 L87.0,91.2 L87.8,91.6 L87.4,92.8 L86.6,94.6 L86.0,95.4 L86.5,97.1 L84.8,98.2 L82.5,100.2 L82.6,101.2 L81.8,102.7 L83.6,103.3 L86.2,102.6 L87.4,102.6 L86.1,104.6 L84.5,107.7 L83.0,110.6 L81.6,111.2 L81.5,113.4 L81.1,115.2 L81.8,117.1 L81.8,118.3 L80.7,120.1 L81.1,121.1 L80.8,122.2 L79.0,124.2 L77.8,124.1 L76.7,124.0 L74.8,122.9 L72.4,122.9 L70.9,121.3 L69.7,118.6 L68.7,116.8 L67.9,115.8 L66.2,115.9 L64.7,115.0 L61.6,115.2 L59.4,115.1 L60.1,115.9 L63.3,116.0 L66.0,117.3 L67.1,118.9 L66.9,120.7 L65.1,120.6 L63.6,122.7 L62.6,124.3 L62.8,126.7 L64.3,128.5 L66.9,127.8 L65.8,129.1 L65.8,130.5 L63.8,130.1 L61.1,128.4 L59.7,127.8 L57.8,127.5 L57.3,126.4 L58.6,125.0 L61.2,125.9 L60.0,123.9 L59.0,122.7 L58.6,123.4 L57.1,122.8 L55.9,122.0 L54.8,121.0 L53.4,121.2 L53.1,121.3 L52.3,122.1 L51.6,123.3 L51.8,123.9 L52.3,123.2 L52.2,124.0 L51.7,124.3 L51.0,123.6 L50.8,122.9 L50.1,122.2 L49.8,121.6 L49.4,120.9 L48.5,120.1 L49.6,121.9 L49.4,122.6 L48.2,121.1 L47.9,120.1 L48.1,120.0 L47.5,120.0 L47.6,120.5 L46.4,121.2 L44.9,121.2 L45.2,120.7 L45.2,120.3 L45.4,119.5 L44.7,120.6 L44.5,121.2 L44.0,121.8 L43.3,121.8 L41.9,122.1 L41.9,121.9 L43.0,121.4 L43.3,120.1 L44.5,118.8 L43.8,119.1 L42.9,120.3 L42.9,119.1 L42.7,120.6 L41.3,122.0 L41.4,122.6 L40.9,123.2 L39.6,124.9 L38.3,125.0 L37.4,123.7 L36.3,123.5 L36.1,122.8 L35.4,122.5 L34.9,122.8 L33.6,121.9 L32.8,121.6 L31.9,121.6 L31.0,122.4 L30.2,123.6 L29.3,125.4 L28.6,127.1 L28.1,127.8 L27.0,130.2 L26.3,131.2 L25.8,131.6 L25.1,132.1 L24.9,131.7 L24.8,130.7 L25.2,129.8 L25.3,128.8 L26.1,126.6 L26.8,124.8 L27.2,124.0 L28.0,123.4 L28.6,122.2 L29.4,119.7 L29.5,118.8 L28.8,117.7 L28.8,117.3 L29.3,115.9 L29.5,114.5 L29.2,112.7 L29.3,111.1 L29.2,109.9 L29.0,109.3 L28.6,110.0 L28.1,110.5 L27.9,111.1 L27.7,110.9 L27.9,110.1 L27.7,109.7 L27.7,108.4 L28.4,106.5 L28.3,105.1 L28.7,103.6 L28.7,102.6 L28.5,101.4 L27.8,100.7 L27.6,99.5 L27.2,99.1 L26.7,99.3 L26.0,100.0 L25.4,100.7 L25.0,101.4 L25.0,101.4 L25.0,101.4 L24.2,101.8 L23.5,102.3 L22.3,103.8 L21.8,104.2 L21.3,105.2 L20.7,106.4 L20.0,107.7 L19.2,109.9 L18.7,111.1 L18.2,112.4 L17.8,114.7 L17.4,116.1 L17.4,117.3 L17.4,118.6 L17.5,119.8 L17.6,120.7 L17.9,121.4 L18.3,121.0 L19.0,120.1 L19.3,120.0 L19.5,120.9 L19.8,122.5 L19.8,124.2 L20.0,125.2 L19.8,125.9 L19.4,126.5 L18.8,126.4 L18.3,126.8 L18.1,127.3 L17.8,127.7 L17.1,128.3 L17.3,127.4 L17.3,127.1 L17.2,127.3 L17.2,127.6 L17.0,128.0 L16.6,128.3 L16.5,128.7 L16.3,129.0 L16.2,129.2 L15.8,129.7 L15.6,129.7 L15.6,129.4 L15.4,129.5 L15.3,130.4 L15.4,130.3 L15.3,131.1 L15.3,131.3 L15.4,131.5 L15.5,132.0 L15.4,132.3 L15.5,132.5 L15.5,133.5 L15.5,134.4 L15.7,134.8 L15.8,134.9 L15.8,135.6 L15.8,136.1 L15.8,136.6 L15.9,136.8 L15.9,137.9 L16.0,138.2 L15.9,139.1 L15.8,140.0 L15.8,140.9 L15.7,141.8 L15.6,141.7 L15.5,142.0 L15.3,142.7 L15.0,142.7 L14.8,143.1 L14.5,143.7 L14.4,144.2 L14.2,144.9 L14.1,144.7 L13.8,145.2 L13.7,145.7 L13.5,145.7 L13.4,146.1 L13.4,146.7 L13.2,148.0 L13.1,149.3 L13.1,150.8 L13.1,152.0 L13.0,152.3 L13.1,153.1 L13.2,153.2 L13.2,154.1 L13.4,154.9 L13.7,155.4 L14.0,156.3 L14.2,156.5 L14.5,157.6 L14.4,157.7 L14.7,158.8 L14.8,159.9 L14.9,161.0 L15.0,162.1 L15.2,163.1 L15.9,163.5 L16.2,164.1 L16.3,163.7 L16.8,162.7 L17.4,163.1 L17.8,164.3 L17.9,164.1 L18.4,165.7 L19.2,166.4 L19.6,166.8 L20.2,166.9 L20.4,167.6 L20.5,168.5 L20.2,168.7 L20.0,169.0 L19.5,168.1 L19.6,169.4 L19.3,170.2 L18.8,170.2 L18.7,172.2 L19.1,172.9 L19.6,172.2 L19.5,171.1 L19.7,169.8 L20.9,171.5 L21.0,170.5 L21.4,170.6 L21.4,172.4 L22.0,173.7 L22.3,175.7 L22.2,176.3 L23.0,177.9 L24.1,179.7 L24.5,181.4 L25.2,182.9 L25.9,183.4 L26.0,183.0 L27.3,185.1 L28.7,187.1 L27.6,186.2 L27.8,187.5 L28.7,189.0 L29.4,191.1 L29.3,192.6 L29.9,193.4 L30.3,194.5 L31.0,196.1 L31.6,198.2 L31.5,199.0 L32.0,199.7 L32.6,201.4 L33.0,202.5 L34.6,204.8 L34.8,204.7 L35.9,205.9 L37.4,208.1 L37.8,208.8 L38.9,210.3 L40.3,213.2 L40.5,214.1 L41.0,214.6 L41.3,215.8 L42.0,219.3 L42.8,220.3 L42.9,221.4 L41.7,221.4 L42.1,222.3 L45.0,225.2 L45.0,226.7 L46.3,226.9 L48.3,229.2 L51.2,232.4 L52.1,233.9 L51.8,234.4 L53.9,235.6 L57.4,238.9 L60.2,240.8 L63.0,243.8 L65.6,246.8 L67.1,248.1 L68.8,249.1 L69.6,249.9 L70.5,251.9 L70.9,252.8 L70.4,254.4 L69.6,254.5 L67.2,254.5 L66.3,255.0 L65.2,255.0 L64.8,254.7 L64.5,255.2 L65.4,257.1 L65.5,258.2 L65.7,258.7 L65.3,258.7 L65.6,259.6 L64.6,259.5 L64.9,260.1 L63.8,259.5 L63.8,259.6 L62.0,258.3 L59.7,256.6 L58.9,256.0 L57.3,254.8 L56.1,253.8Z" fill="#F38020" opacity="0.25"/>
  <path d="M13.3,180.3 L12.8,177.9 L12.4,175.9 L12.4,175.9 L12.0,173.7 L12.0,173.3 L12.2,173.9 L12.4,173.9 L12.2,172.9 L12.1,172.8 L11.8,171.0 L11.9,171.0 L11.8,169.4 L11.9,169.8 L12.0,169.3 L12.1,169.1 L12.1,168.4 L12.3,169.1 L12.7,169.9 L12.6,169.2 L12.8,169.8 L12.8,169.0 L13.0,168.9 L13.2,169.8 L13.5,169.7 L13.8,169.7 L13.7,168.6 L13.9,168.1 L13.9,166.3 L14.1,166.4 L14.3,164.8 L14.2,163.2 L14.1,162.2 L14.2,161.0 L14.4,161.0 L14.3,160.5 L14.3,159.6 L14.2,158.2 L14.0,157.5 L13.8,157.6 L13.5,157.2 L13.4,156.8 L13.3,157.0 L13.3,158.7 L13.2,158.3 L13.1,158.3 L12.9,157.5 L13.0,156.2 L12.9,156.2 L12.8,155.5 L12.8,154.5 L12.7,153.6 L12.7,153.0 L12.5,152.1 L12.5,152.4 L12.5,152.0 L12.4,150.6 L12.4,149.9 L12.5,149.9 L12.6,149.5 L12.6,148.6 L12.6,147.5 L12.6,146.7 L12.7,146.1 L12.7,145.4 L12.6,145.9 L12.4,145.9 L12.5,145.0 L12.5,144.2 L12.6,143.7 L12.7,143.3 L12.9,143.1 L12.9,142.3 L13.0,142.5 L13.1,141.4 L13.2,139.9 L13.4,139.0 L13.5,137.7 L13.7,136.1 L13.7,136.1 L13.7,136.6 L13.7,136.7 L13.9,135.9 L13.9,135.2 L13.8,135.3 L13.7,134.2 L13.8,133.4 L13.9,132.3 L13.9,131.1 L14.0,130.3 L14.1,129.1 L14.1,127.8 L14.3,126.7 L14.6,125.1 L15.4,121.5 L15.7,120.0 L16.0,118.1 L16.1,117.2 L16.0,116.2 L16.1,115.3 L16.4,113.7 L16.8,112.0 L17.4,109.7 L17.8,108.1 L18.6,105.4 L19.3,103.2 L19.7,102.4 L20.0,101.3 L20.7,99.1 L21.3,97.8 L22.4,95.1 L23.2,93.5 L23.7,92.5 L23.6,93.0 L23.9,92.5 L24.0,92.6 L24.3,92.2 L24.9,91.1 L25.3,90.5 L25.9,89.3 L27.4,86.7 L28.8,84.1 L29.8,82.6 L30.8,80.8 L31.2,80.2 L31.7,79.9 L32.3,78.8 L33.2,77.3 L34.2,76.2 L34.7,75.3 L35.7,73.9 L36.6,72.7 L37.0,72.3 L38.3,70.8 L39.4,69.6 L39.9,69.3 L40.9,67.9 L41.2,67.4 L42.0,66.3 L41.6,66.4 L40.9,67.0 L40.0,67.8 L39.2,68.7 L37.9,70.4 L37.5,70.9 L37.2,71.2 L36.8,71.7 L36.6,72.0 L35.8,72.9 L35.3,73.6 L34.7,74.3 L33.7,75.8 L32.5,77.2 L31.8,78.2 L31.1,79.1 L30.6,79.7 L30.2,80.6 L29.5,81.7 L28.8,82.8 L28.6,83.0 L28.6,82.6 L28.8,82.3 L29.5,81.2 L30.6,79.5 L31.6,77.8 L32.3,76.7 L32.9,76.1 L33.6,75.3 L34.3,74.2 L35.3,72.7 L35.3,72.6 L35.8,71.9 L36.6,70.7 L37.7,69.3 L37.7,69.3 L37.3,70.0 L37.4,70.3 L37.8,69.9 L39.3,68.1 L40.1,67.0 L41.1,65.9 L42.2,64.8 L43.5,63.5 L45.0,62.2 L45.7,61.6 L47.0,60.2 L47.6,59.5 L48.1,59.1 L48.7,58.3 L49.3,57.6 L50.4,56.2 L50.8,55.8 L51.6,55.3 L53.8,53.4 L56.4,51.5 L56.7,51.5 L57.6,50.7 L59.4,49.4 L60.6,48.8 L61.9,48.0 L62.8,47.9 L64.0,47.6 L65.3,47.0 L66.2,47.2 L68.6,47.0 L70.7,46.6 L72.3,46.1 L73.2,45.7 L73.4,45.8 L71.6,47.4 L69.7,48.2 L69.9,48.4 L71.3,48.1 L72.8,47.6 L73.0,47.5 L76.2,45.3 L77.5,44.5 L79.8,42.7 L81.6,42.2 L82.4,42.4 L84.3,41.2 L85.7,41.2 L87.9,40.2 L88.7,40.3 L89.7,39.9 L91.0,39.3 L92.6,39.3 L95.0,38.6 L96.9,38.5 L97.9,37.8 L99.4,36.7 L100.9,36.0 L104.3,35.2 L105.4,34.7 L107.6,33.8 L108.8,32.9 L111.3,32.2 L113.0,31.8 L113.9,31.1 L112.9,30.7 L113.4,30.3 L114.4,29.6 L115.0,28.9 L116.0,28.2 L116.7,28.6 L117.2,29.6 L116.5,30.3 L117.0,30.4 L117.8,29.4 L117.8,28.5 L118.7,27.3 L117.5,27.3 L117.9,26.3 L118.8,25.5 L119.7,24.8 L119.6,24.4 L121.2,23.3 L121.2,22.9 L122.4,22.1 L123.4,21.9 L124.4,21.3 L125.5,20.7 L126.4,20.2 L128.6,19.5 L128.9,19.5 L127.7,20.2 L126.6,20.8 L125.5,21.5 L124.0,22.1 L123.6,22.5 L122.3,23.5 L122.2,23.8 L121.5,24.3 L121.9,25.0 L121.8,25.7 L122.9,25.0 L123.4,25.0 L123.8,24.5 L124.9,24.7 L125.0,24.3 L125.8,24.6 L126.7,23.9 L127.5,23.7 L128.0,24.2 L128.0,24.6 L129.0,24.7 L130.4,24.2 L131.6,24.4 L132.6,24.4 L132.9,25.0 L134.0,25.2 L133.8,25.9 L133.3,26.6 L133.2,27.3 L132.4,27.5 L131.5,27.5 L131.0,28.3 L130.2,28.4 L129.6,28.9 L130.1,29.3 L130.8,29.4 L130.4,30.0 L131.0,29.8 L131.9,29.3 L132.0,29.0 L133.0,29.0 L134.3,28.6 L136.0,28.5 L136.6,28.9 L138.1,29.4 L137.0,30.1 L135.1,31.1 L134.3,31.3 L134.2,30.7 L132.2,31.2 L133.4,31.7 L134.7,31.9 L135.7,32.4 L136.8,32.7 L138.2,32.8 L138.0,33.6 L136.5,34.0 L135.7,34.8 L135.8,35.5 L135.4,36.3 L134.7,36.6 L133.6,37.6 L132.9,37.8 L132.2,38.8 L130.9,38.9 L130.0,38.6 L129.8,38.9 L128.6,39.4 L128.4,39.1 L127.1,39.4 L126.5,39.8 L124.6,40.2 L123.2,40.8 L122.5,41.0 L121.8,41.7 L120.4,42.0 L119.4,42.3 L117.9,42.9 L116.1,43.2 L115.3,43.6 L115.4,44.4 L115.2,45.3 L114.1,45.9 L114.0,47.0 L113.6,48.0 L112.5,48.1 L112.5,48.6 L113.2,49.1 L112.7,49.4 L110.2,49.7 L110.8,50.9 L109.3,50.5 L109.0,51.3 L109.4,51.7 L108.8,52.4 L107.3,53.1 L105.6,54.4 L104.7,55.2 L104.4,55.8 L102.9,56.6 L102.4,55.5 L101.3,56.7 L100.6,58.6 L100.7,59.2 L99.1,59.9 L99.8,60.7 L101.0,60.0 L101.6,60.5 L101.4,61.3 L101.4,61.9 L100.7,62.5 L99.2,63.2 L99.2,64.0 L97.8,65.3 L97.9,66.4 L97.6,67.5 L99.0,67.3 L99.3,67.9 L98.4,69.1 L96.3,69.4 L98.0,69.6 L97.9,70.2 L100.1,70.2 L101.6,69.2 L102.6,68.3 L105.2,68.0 L106.7,68.6 L106.3,69.4 L105.2,70.2 L102.6,71.6 L101.5,71.2 L101.0,72.5Z" fill="#F38020" opacity="0.25"/>
  <path d="M112.9,57.8 L112.1,57.4 L112.1,58.7 L110.6,59.3 L111.4,60.0 L110.5,60.5 L108.1,60.8 L108.9,61.1 L111.4,60.9 L111.5,61.4 L110.9,61.9 L109.8,62.5 L107.5,62.8 L105.8,63.0 L104.4,64.1 L103.0,65.3 L102.1,65.3 L102.2,64.2 L101.2,64.7 L100.5,64.5 L101.2,63.2 L102.2,62.0 L102.3,61.2 L102.1,59.9 L102.6,57.9 L103.0,57.0 L104.1,56.8 L105.2,56.0 L105.3,55.4 L107.4,54.9 L107.3,55.3 L107.1,56.3 L106.6,57.1 L106.5,58.0 L107.6,56.9 L108.2,55.6 L108.8,54.8 L109.7,54.6 L109.7,56.1 L110.2,55.2 L111.4,54.3 L112.6,55.1 L113.2,55.7 L113.6,57.3 L112.9,57.8Z" fill="#F38020" opacity="0.25"/>
  <path d="M111.3,63.0 L110.0,62.5 L111.9,61.7 L112.1,61.9 L112.0,62.6 L111.3,63.0Z" fill="#F38020" opacity="0.25"/>
  <path d="M110.5,79.0 L109.8,79.3 L109.7,78.7 L109.6,78.1 L109.2,77.5 L109.3,77.3 L110.4,76.3 L111.2,76.1 L111.4,76.3 L111.4,77.6 L110.5,79.0Z" fill="#F38020" opacity="0.25"/>
  <path d="M109.5,73.2 L108.1,74.0 L110.0,74.1 L111.2,75.2 L109.0,76.9 L107.4,77.3 L108.4,78.3 L109.4,78.5 L108.6,80.2 L107.8,81.5 L106.9,82.0 L107.8,82.9 L106.7,84.2 L106.5,86.1 L105.9,87.1 L104.2,88.8 L102.6,88.2 L102.1,90.6 L102.2,91.9 L100.9,94.1 L101.5,95.3 L100.0,96.1 L96.9,96.5 L97.2,95.0 L98.5,92.5 L97.7,91.7 L96.5,92.4 L95.7,93.9 L95.4,95.6 L95.0,96.2 L93.3,98.1 L91.7,98.9 L91.7,97.4 L92.3,94.3 L91.1,96.6 L90.4,98.3 L89.7,98.9 L89.4,96.1 L89.7,93.5 L90.3,91.9 L91.0,91.9 L91.6,90.0 L92.2,88.3 L91.6,88.6 L90.5,86.4 L91.1,85.3 L92.8,85.2 L93.3,86.6 L94.1,88.1 L94.8,87.5 L95.9,87.2 L98.4,87.1 L99.3,86.5 L99.9,85.8 L100.6,84.2 L100.9,82.5 L101.6,82.7 L102.8,81.4 L102.7,80.8 L103.4,80.0 L102.6,79.8 L102.1,78.7 L102.2,76.1 L102.8,74.5 L103.1,73.3 L103.9,72.6 L104.9,73.1 L104.9,72.2 L107.3,71.5 L109.4,71.6 L110.3,72.0 L111.1,73.3 L109.5,73.2Z" fill="#F38020" opacity="0.25"/>
  <path d="M111.7,65.3 L111.1,66.0 L111.2,66.9 L110.5,67.1 L109.4,66.7 L108.3,67.6 L106.3,67.7 L105.5,66.8 L105.8,66.2 L106.8,65.7 L108.9,64.1 L109.6,64.2 L109.1,65.3 L110.7,64.7 L111.7,65.3Z" fill="#F38020" opacity="0.25"/>
  <path d="M174.0,44.9 L174.9,45.4 L175.8,46.3 L175.8,46.4 L174.7,46.4 L173.9,46.1 L173.7,45.2 L174.0,44.9Z" fill="#F38020" opacity="0.25"/>
  <path d="M108.6,69.5 L106.9,69.1 L107.1,68.4 L109.2,67.8 L110.3,67.7 L111.3,67.9 L111.8,68.4 L111.7,69.5 L111.1,70.7 L109.0,70.2 L108.6,69.5Z" fill="#F38020" opacity="0.25"/>
  <path d="M111.5,53.7 L111.6,52.0 L112.7,52.0 L114.7,51.1 L115.2,51.5 L116.4,52.4 L117.4,53.3 L118.9,53.2 L118.0,54.8 L117.1,55.4 L116.2,56.5 L115.3,56.9 L114.1,57.2 L113.9,56.5 L113.3,54.9 L112.3,53.9 L111.5,53.7Z" fill="#F38020" opacity="0.25"/>
  <path d="M167.6,45.1 L168.7,44.8 L169.5,45.4 L170.0,46.4 L169.4,46.7 L168.7,46.0 L167.6,45.1Z" fill="#F38020" opacity="0.25"/>
  <path d="M113.8,68.7 L112.9,68.5 L113.2,67.7 L113.9,67.0 L114.9,67.2 L115.4,67.9 L114.6,68.4 L113.8,68.7Z" fill="#F38020" opacity="0.25"/>
  <path d="M170.0,47.2 L171.4,46.5 L173.2,47.7 L174.4,48.0 L174.3,49.4 L173.0,49.9 L172.1,49.7 L171.0,48.8 L170.0,47.2Z" fill="#F38020" opacity="0.25"/>
  <path d="M118.2,66.1 L117.0,66.4 L115.8,66.5 L114.1,66.4 L114.1,65.5 L114.6,65.0 L115.9,65.0 L115.9,64.2 L117.7,64.2 L117.5,64.7 L118.2,65.4 L117.9,66.0 L118.2,66.1Z" fill="#F38020" opacity="0.25"/>
  <path d="M118.3,61.6 L117.4,61.7 L117.6,62.2 L117.4,62.7 L116.2,62.7 L115.2,62.3 L115.6,60.6 L115.2,59.2 L115.5,58.5 L116.3,58.5 L116.7,59.7 L117.6,57.5 L118.4,57.0 L120.1,58.1 L120.4,58.6 L119.0,59.7 L117.3,60.3 L116.8,61.1 L119.2,60.7 L119.9,61.2 L119.4,61.6 L118.3,61.6Z" fill="#F38020" opacity="0.25"/>
  <path d="M189.0,92.4 L188.9,92.9 L187.2,94.4 L186.2,93.8 L184.9,94.3 L183.8,93.5 L183.9,92.7 L182.9,91.8 L182.1,89.6 L181.5,89.8 L180.7,87.5 L179.8,86.9 L179.5,85.3 L179.1,83.0 L179.6,81.4 L179.2,80.3 L179.4,79.4 L180.4,79.5 L180.9,80.1 L181.2,82.2 L181.3,84.1 L182.3,86.8 L183.7,88.9 L184.9,91.0 L186.6,92.2 L189.0,92.4Z" fill="#F38020" opacity="0.25"/>
  <path d="M118.8,67.7 L118.0,68.3 L118.0,69.2 L117.2,69.7 L116.3,69.7 L115.8,70.3 L115.2,70.7 L115.1,71.4 L115.0,72.1 L115.6,72.8 L115.9,73.7 L115.9,74.6 L115.1,75.3 L114.2,75.7 L113.5,75.6 L112.8,75.0 L113.0,74.2 L112.5,72.8 L112.4,71.7 L112.6,70.8 L113.4,69.3 L114.7,69.0 L115.9,68.8 L117.0,68.2 L117.4,67.2 L118.2,66.7 L119.1,66.8 L118.8,67.7Z" fill="#F38020" opacity="0.25"/>
  <path d="M123.1,58.9 L121.5,58.5 L121.0,58.0 L121.1,57.5 L120.7,56.5 L120.9,55.8 L121.8,55.4 L121.8,55.4 L122.8,56.5 L123.5,57.7 L123.1,58.3 L123.1,58.9Z" fill="#F38020" opacity="0.25"/>
  <path d="M180.2,62.4 L181.3,62.1 L180.6,61.8 L180.0,60.6 L180.6,59.4 L181.2,58.9 L182.4,58.8 L183.3,59.2 L185.2,60.3 L186.0,60.6 L186.0,59.9 L186.2,59.1 L185.6,58.7 L186.8,58.2 L186.1,58.1 L185.3,57.3 L184.7,55.7 L185.5,55.3 L184.3,53.2 L182.8,53.6 L182.3,52.5 L181.6,51.8 L181.9,50.7 L182.9,50.0 L183.9,50.0 L184.7,48.8 L184.6,47.7 L182.3,48.1 L182.2,47.0 L180.8,46.4 L180.3,45.3 L179.4,45.3 L178.6,44.5 L177.7,45.7 L176.3,45.6 L171.7,41.8 L171.9,40.9 L170.9,39.2 L167.8,38.3 L166.4,37.6 L166.2,36.9 L166.8,36.0 L166.1,35.4 L164.8,35.3 L163.4,35.0 L161.9,34.4 L160.3,34.3 L159.2,32.9 L158.0,33.1 L158.4,34.1 L157.9,34.6 L155.3,33.9 L153.6,33.9 L151.2,33.1 L150.0,32.5 L150.0,27.5 L150.0,27.5 L151.4,27.0 L152.7,27.1 L151.8,26.5 L151.2,25.5 L150.7,25.2 L150.6,24.8 L150.9,24.5 L153.0,24.8 L156.3,24.2 L157.3,24.1 L159.3,23.6 L161.2,23.2 L161.8,22.8 L163.2,23.7 L166.7,23.5 L167.0,24.0 L168.4,23.8 L169.9,24.3 L170.7,23.8 L172.7,23.3 L173.0,23.0 L171.7,22.4 L172.7,21.3 L173.9,21.6 L175.0,21.1 L174.7,20.7 L177.4,21.0 L178.7,20.3 L180.9,20.8 L182.0,20.4 L184.7,20.5 L184.7,21.1 L184.2,22.1 L183.1,23.8 L181.3,24.5 L179.8,24.6 L179.4,24.9 L177.3,24.5 L174.3,24.9 L171.6,25.2 L169.0,25.5 L167.3,26.7 L168.6,26.9 L169.8,26.2 L173.4,26.0 L173.4,27.4 L176.5,28.0 L180.7,27.5 L180.3,26.7 L183.1,27.5 L184.9,28.2 L184.1,28.7 L185.6,29.5 L187.4,29.8 L190.5,31.6 L194.1,33.4 L199.9,34.5 L207.0,36.5 L205.6,35.2 L205.9,34.6 L205.2,33.7 L203.9,33.4 L202.8,32.6 L202.5,31.1 L203.5,30.8 L205.6,31.0 L207.2,30.8 L209.6,30.8 L213.2,31.9 L214.4,32.2 L217.5,33.4 L220.6,34.7 L222.1,35.4 L224.5,36.8 L225.2,37.5 L225.4,38.1 L227.9,39.7 L228.5,39.9 L228.9,40.3 L229.8,40.9 L230.6,41.3 L231.4,41.4 L232.3,42.1 L232.7,42.3 L233.5,42.9 L234.5,43.7 L235.3,44.3 L235.9,44.5 L236.2,44.7 L235.9,44.3 L235.8,43.7 L236.1,43.1 L236.6,43.1 L237.8,43.5 L238.9,44.3 L240.3,45.5 L241.7,46.7 L242.9,47.9 L242.4,47.8 L241.3,47.2 L240.6,47.3 L239.6,46.3 L239.4,46.8 L239.7,47.3 L240.0,47.5 L240.5,47.9 L240.3,47.9 L240.5,48.2 L240.6,48.5 L239.7,47.9 L239.3,47.6 L239.2,47.6 L238.2,47.1 L238.1,47.1 L238.6,47.8 L238.7,48.3 L240.6,50.2 L241.9,51.3 L243.3,52.9 L242.2,51.9 L241.9,52.0 L240.2,50.7 L240.0,51.2 L241.3,52.5 L243.4,54.2 L244.8,55.4 L245.7,56.7 L246.8,57.7 L247.3,57.3 L246.7,56.3 L247.3,56.5 L246.9,55.6 L244.9,53.7 L244.5,52.7 L243.9,51.8 L244.4,51.9 L246.2,53.9 L247.3,54.9 L248.9,56.5 L250.3,57.7 L249.9,56.5 L250.6,56.6 L251.0,56.3 L251.1,55.8 L251.9,56.4 L252.9,57.5 L253.2,57.5 L252.9,56.9 L253.9,57.7 L255.0,58.7 L255.7,59.6 L257.5,61.5 L259.7,63.9 L261.7,66.4 L264.0,69.5 L266.1,72.5 L267.3,74.5 L268.3,76.0 L268.3,76.2 L269.2,77.7 L270.9,80.6 L271.9,82.6 L273.0,84.3 L273.5,85.3 L273.1,85.0 L272.6,84.1 L273.3,86.1 L273.8,87.1 L275.4,90.4 L276.7,93.0 L277.4,94.2 L277.7,94.1 L278.0,94.0 L277.7,93.1 L277.8,93.0Z" fill="#F38020" opacity="0.25"/>
  <path d="M283.4,107.4 L283.8,108.8 L283.8,108.9 L283.6,108.5 L283.8,109.6 L284.2,111.2 L283.7,109.9 L284.1,111.6 L284.7,113.2 L285.6,116.2 L286.1,118.0 L286.4,118.9 L286.1,117.7 L286.3,118.1Z" fill="#F38020" opacity="0.25"/>
  <path d="M286.9,120.9 L287.0,121.2 L287.0,121.4 L287.2,122.6 L287.1,122.2 L286.9,121.1 L286.4,119.2 L286.1,118.4 L285.6,116.8 L285.4,116.6 L284.8,115.0 L284.7,115.1 L284.1,114.1 L283.3,112.8 L282.9,112.5 L283.4,114.4 L284.2,117.5 L284.2,118.5 L284.2,119.3 L283.3,117.0 L282.6,116.2 L281.8,116.1 L281.5,115.4 L281.5,116.3 L280.9,116.6 L280.4,116.4 L280.0,115.9 L279.6,115.6 L279.1,115.6 L279.1,117.2 L279.4,117.6 L280.0,118.9 L279.8,119.4 L279.9,119.9 L279.8,120.3 L279.7,120.9 L280.1,121.6 L280.0,122.9 L280.1,125.4 L280.7,126.3 L281.2,128.1 L281.5,131.8 L282.2,135.5 L282.5,137.8 L282.6,140.6 L283.0,141.3 L283.0,142.6 L282.9,144.8 L282.7,145.8 L283.1,147.5 L284.0,149.0 L284.5,150.1 L284.8,152.3 L285.6,154.8 L285.4,155.9 L285.5,157.9 L285.7,157.8 L285.4,160.0 L285.5,161.6 L285.4,162.8 L284.5,163.2 L283.7,162.0 L283.1,161.2 L282.6,161.2 L281.8,160.7 L281.0,159.3 L280.5,158.6 L279.1,158.2 L277.5,156.0 L276.3,154.5 L275.4,152.6 L274.4,151.5 L273.9,155.0 L273.3,156.1 L271.2,156.4 L271.3,155.0 L270.7,154.9 L269.0,155.5 L268.2,156.3 L267.2,155.6 L265.8,155.7 L264.3,159.0 L262.8,161.6 L261.4,164.1 L259.1,166.5 L257.7,167.8 L256.2,169.2 L254.6,167.7 L253.9,168.1 L253.1,169.5 L252.3,171.9 L250.4,173.0 L248.4,173.0 L246.9,173.8 L245.1,173.0 L242.9,171.5 L242.3,172.5 L241.1,172.7 L241.0,173.9 L240.1,174.6 L240.8,175.1 L240.9,175.7 L242.0,176.7 L243.3,177.8 L244.2,177.6 L244.7,178.0 L246.0,177.9 L246.5,178.6 L246.6,179.3 L247.1,179.8 L247.7,179.9 L248.1,180.3 L248.5,180.5 L247.9,179.3 L247.8,178.0 L248.1,177.4 L248.8,177.5 L249.3,178.6 L249.4,180.0 L250.0,180.4 L250.2,180.0 L250.5,180.5 L251.4,179.1 L252.6,177.9 L253.4,177.1 L253.7,174.9 L254.1,172.7 L254.4,170.6 L254.4,169.6 L254.6,169.6 L254.9,170.5 L254.9,171.0 L255.7,172.2 L256.9,172.7 L257.9,172.5 L258.8,171.6 L259.7,171.0 L260.7,171.3 L261.3,171.4 L261.8,171.1 L261.9,171.5 L262.0,173.1 L262.0,173.8 L261.8,175.0 L261.8,176.8 L261.3,177.4 L261.2,178.1 L261.3,179.2 L262.0,180.2 L261.9,180.5 L261.3,181.3 L260.8,182.9 L261.0,183.9 L260.8,184.6 L260.0,185.5 L259.7,186.6 L259.9,187.3 L259.4,188.5 L258.6,189.2 L257.9,190.8 L257.3,191.6 L256.4,193.1 L256.4,194.2 L256.5,194.8 L255.3,197.0 L253.1,200.1 L252.0,202.6 L251.4,203.4 L250.8,203.7 L250.1,205.2 L249.1,206.5 L247.8,207.7 L247.4,208.2 L247.1,208.9 L246.7,209.4 L246.6,210.1 L245.7,210.7 L245.2,211.4 L244.0,212.2 L243.3,211.5 L243.2,210.5 L242.8,210.2 L242.1,209.2 L241.5,208.9 L241.8,208.5 L241.4,207.8 L241.5,207.3 L241.2,206.6 L240.8,206.0 L240.2,205.9 L239.8,205.2 L238.8,205.2 L237.4,204.4 L236.5,203.2 L234.9,202.8 L234.0,203.0 L232.3,202.0 L231.7,200.8 L231.5,199.6 L229.8,198.1 L228.7,197.9 L227.7,198.1 L226.7,197.3 L226.7,196.8 L225.9,196.1 L225.2,196.0 L224.0,194.9 L222.4,193.9 L221.1,193.0 L220.2,193.5 L220.1,192.3 L220.0,191.5 L219.9,190.6 L219.8,190.3 L219.5,191.4 L219.7,193.2 L219.5,194.5 L219.2,195.1 L218.4,194.7 L217.3,194.3 L215.1,192.0 L215.0,192.2 L216.4,194.0 L218.1,195.5 L220.5,197.9 L221.5,198.7 L222.4,199.5 L224.7,200.7 L224.4,201.3 L224.8,202.5 L227.4,203.0 L227.9,203.2 L229.0,204.7 L228.7,205.3 L229.5,207.1 L230.7,208.9 L231.6,208.9 L232.7,209.0 L234.3,210.4 L235.2,211.7 L236.4,212.0 L239.2,211.9 L240.5,212.2 L241.6,212.5 L242.3,212.7 L243.3,212.6 L243.8,212.8 L243.9,213.6 L243.0,214.7 L243.8,214.6 L244.5,214.5 L244.9,215.0 L245.8,215.0 L246.7,214.4 L248.2,212.7 L250.0,210.9 L251.3,209.2 L252.1,208.3 L252.6,207.5 L253.5,206.6 L254.0,206.1 L254.6,205.2 L255.4,204.3 L256.0,203.0 L256.6,202.4 L256.7,202.8 L256.8,203.9 L257.0,204.8 L256.8,205.7 L256.7,207.9 L256.3,210.4 L255.6,213.4 L254.6,216.9 L253.3,219.9 L251.5,223.7 L249.9,226.3 L247.4,229.9 L245.7,232.2 L243.7,235.4 L243.3,236.5 L242.9,237.1 L241.6,238.6 L241.1,239.5 L240.4,240.0 L240.1,241.2 L239.4,242.1 L239.0,243.2 L238.2,244.2 L237.1,246.3 L237.2,247.0 L238.3,246.6 L238.3,246.9 L237.7,248.0 L237.7,248.3 L237.5,249.0 L238.0,249.3 L238.5,249.9 L239.1,249.7 L239.3,250.0 L238.9,251.2 L238.8,252.0 L238.3,253.6 L238.4,253.8 L237.6,254.9 L236.6,256.1 L235.2,257.4 L233.4,258.9 L231.1,260.6 L228.5,262.8 L227.7,263.4 L226.0,264.8 L225.2,265.4 L224.7,266.0 L225.2,266.1 L225.2,266.3 L225.1,266.5 L225.4,266.3 L224.9,267.0 L224.3,267.5 L224.6,267.4 L224.1,267.8 L223.2,268.5 L221.5,269.5 L218.9,271.1 L217.9,271.7 L217.8,271.9 L218.3,271.7 L217.8,272.0 L216.9,272.6 L216.2,273.2 L215.4,273.6 L213.9,274.5 L213.4,274.7 L212.3,275.3 L211.5,275.7 L210.0,276.5 L207.3,277.7Z" fill="#F38020" opacity="0.25"/>
  <path d="M187.3,284.9 L186.7,285.1 L186.5,285.1 L186.4,285.2 L186.7,285.1 L186.3,285.1 L187.0,284.9 L187.3,284.8 L186.3,284.9 L185.6,284.9 L185.6,284.9 L184.6,284.8 L183.3,284.9 L182.7,284.8 L182.5,284.5 L182.2,284.2 L181.9,283.6 L182.1,282.9 L181.9,282.7 L181.2,282.6 L180.2,282.3 L179.3,281.7 L178.9,281.3 L177.2,280.9 L177.2,280.4 L177.1,279.9 L177.5,279.1 L178.4,278.2 L178.6,277.7 L179.5,276.8 L180.1,276.3 L181.5,275.4 L182.3,274.8 L182.6,274.0 L182.5,273.4 L181.9,273.2 L181.3,272.7 L180.8,272.1 L180.9,271.9 L181.7,271.3 L181.1,270.3 L180.6,269.6 L179.5,269.0 L179.7,268.8 L179.4,268.4 L178.8,267.6 L176.9,266.6 L174.4,265.6 L172.9,264.7 L171.4,263.5 L171.5,263.0 L172.0,262.5 L172.6,261.4 L173.1,260.2 L172.6,260.1 L173.4,258.3 L173.8,257.0 L172.8,256.1 L171.7,256.0 L171.2,255.4 L170.6,255.2 L170.6,254.8 L168.1,255.6 L167.2,255.7 L166.3,256.1 L164.3,256.2 L163.0,255.3 L162.2,254.2 L160.5,253.3 L158.7,253.4 L156.5,253.5 L154.5,253.7 L152.6,254.1 L148.8,255.1 L147.4,255.6 L145.2,256.1 L143.1,255.5 L141.9,255.5 L140.3,255.1 L138.7,255.0 L135.8,255.1 L134.1,255.4 L131.7,255.7 L131.3,255.6 L130.6,255.6 L128.2,254.5 L126.0,253.0 L124.0,251.8 L122.4,250.5 L121.8,250.3 L120.1,249.3 L118.9,248.2 L118.5,247.5 L118.3,246.2 L117.3,245.0 L116.5,244.1 L115.9,243.8 L115.3,243.3 L115.1,242.5 L114.8,242.0 L114.1,241.6 L113.0,240.5 L112.0,240.2 L111.5,239.6 L111.5,239.3 L110.9,238.7 L110.8,238.3 L110.5,236.8 L110.9,236.1 L110.1,234.4 L109.0,233.5 L110.0,233.4 L111.3,232.3 L111.9,231.5 L111.8,230.4 L112.5,229.6 L113.0,227.8 L113.0,225.8 L112.8,224.8 L113.1,223.8 L112.7,222.7 L111.6,221.6 L111.9,220.8 L112.1,219.8 L113.0,219.5 L113.8,218.6 L113.8,217.9 L114.7,216.6 L116.1,215.5 L116.8,215.3 L117.6,214.2 L117.8,213.1 L118.7,212.0 L120.2,211.5 L121.8,209.5 L123.0,208.9 L125.0,209.0 L126.8,207.7 L127.9,207.3 L129.8,205.7 L129.6,202.9 L130.5,201.1 L130.9,199.9 L132.4,198.5 L134.5,197.7 L136.0,196.9 L137.5,194.7 L138.3,193.3 L139.7,193.5 L140.9,194.5 L142.8,194.5 L144.8,195.1 L145.7,195.1 L147.6,193.9 L149.7,193.5 L151.0,192.6 L152.9,191.8 L156.2,191.3 L159.4,190.9 L160.4,191.2 L162.2,190.1 L164.2,189.9 L165.1,190.4 L166.4,190.1 L168.4,188.9 L169.8,189.0 L169.8,190.1 L171.4,189.0 L171.6,189.5 L170.7,190.8 L170.8,191.8 L171.6,192.3 L171.5,194.3 L170.4,195.7 L170.9,196.8 L171.9,196.7 L172.5,197.7 L173.3,198.0 L175.8,198.3 L176.6,198.0 L178.3,198.0 L181.1,198.5 L182.4,200.2 L184.2,200.2 L187.2,200.5 L189.5,201.0 L190.4,200.1 L191.2,198.8 L190.4,197.3 L190.8,196.1 L191.9,194.6 L193.2,193.9 L195.9,193.5 L196.7,194.2 L197.5,194.0 L198.1,194.2 L200.1,193.7 L200.7,194.3 L203.2,193.2 L205.1,193.1 L207.2,192.9 L208.1,192.9 L209.3,191.6 L209.9,190.6 L211.4,189.7 L212.8,189.3 L213.6,190.1 L213.8,189.2 L215.3,189.0 L216.7,188.4 L217.4,187.4 L217.7,186.4 L217.5,186.4 L217.6,185.2 L217.4,183.4 L217.4,182.7 L217.5,182.7 L217.4,180.6 L217.7,178.7 L217.7,178.6 L216.9,177.1 L217.0,176.0 L216.0,175.4 L216.3,174.2 L215.4,175.0 L213.8,175.3 L213.2,177.1 L210.8,178.7 L209.0,178.2 L207.2,179.0 L207.1,180.1 L206.0,180.9 L204.0,180.5 L202.1,181.4 L200.4,179.6 L198.8,178.9 L199.1,176.8 L197.7,176.2 L198.9,173.3 L201.3,172.1 L201.4,170.1 L204.6,169.0 L205.9,166.6 L207.4,165.1 L209.9,163.7 L213.1,163.6 L215.6,163.2 L217.1,161.7 L218.4,161.1 L219.5,158.9 L219.3,157.9 L218.2,156.7 L217.0,156.5 L216.1,156.8 L215.3,156.5 L212.6,155.8 L210.7,156.0 L208.9,155.5 L209.7,154.6 L209.9,152.1 L208.7,151.7 L210.2,149.6 L209.9,149.2 L209.0,150.3 L208.0,151.1 L207.5,152.3 L206.3,153.2 L205.5,154.7 L206.2,156.0 L207.1,156.1 L208.4,155.2 L208.5,156.1 L207.2,157.4 L205.8,159.7 L204.8,159.7 L204.7,158.5 L202.8,158.7 L202.9,158.1 L203.9,156.7 L203.3,156.4 L200.9,157.0 L200.4,156.2 L199.2,157.1 L199.2,158.6 L198.7,160.8 L198.9,161.4 L198.4,162.2 L197.8,162.2 L198.4,165.1 L197.9,166.3 L197.9,168.2 L198.8,169.2 L199.3,170.0 L201.0,170.1 L200.9,170.8 L199.0,171.8 L198.5,172.7 L197.5,174.5 L196.7,173.7 L196.5,173.2 L195.5,173.5 L194.6,173.7 L192.7,175.0 L194.2,175.8 L193.5,176.5 L192.5,176.9 L191.3,176.0 L191.1,176.6 L191.9,177.8 L193.0,178.6 L192.5,179.3 L193.7,180.0 L194.8,180.4 L195.2,181.6 L193.4,181.6 L194.2,182.6 L193.1,183.2 L194.3,184.9 L193.1,185.4 L191.4,184.9 L190.3,183.3 L189.6,181.9 L188.6,181.1 L187.4,180.0 L187.1,179.4 L186.8,179.3 L186.7,178.9 L185.5,178.4 L185.1,177.3 L184.9,175.7 L185.0,174.9 L184.6,174.6 L184.2,174.5 L183.5,173.9 L182.7,173.7 L180.9,173.2 L179.7,172.6 L178.0,172.3 L176.3,170.9 L176.6,170.6 L175.6,169.8 L175.4,169.0 L174.3,168.9 L174.0,170.0 L173.3,169.3 L173.2,168.5 L173.3,168.4 L173.6,168.1 L172.2,168.1 L171.0,169.1 L171.3,170.3 L171.2,171.0 L171.9,172.1 L173.7,173.0 L174.9,174.8 L177.2,176.3 L178.6,176.0 L179.1,176.4 L178.7,177.0 L180.4,177.4 L181.9,177.8 L183.6,178.6 L183.9,179.0 L183.8,179.9 L182.5,179.1 L180.9,179.1 L180.5,180.8 L181.9,181.3 L181.9,182.6 L181.2,182.9 L180.6,185.1 L179.9,185.5 L179.7,184.8 L179.9,183.4 L180.2,182.9 L179.2,181.7 L178.5,180.6 L177.7,180.5 L177.0,179.6 L175.8,179.4 L174.8,178.6 L173.5,178.7 L171.9,177.9 L170.1,176.7 L168.7,175.5 L167.9,173.2 L167.0,173.1 L165.5,172.5 L164.7,172.9 L163.8,174.1 L163.1,174.4 L161.6,175.9 L158.1,175.5 L155.5,176.4 L155.4,177.9 L155.5,179.2 L153.8,180.9 L151.5,181.4 L151.3,182.3 L150.2,183.6 L149.5,185.5 L150.2,186.9 L149.1,187.9 L148.7,189.4 L147.2,189.9 L145.8,191.6 L143.3,191.6 L141.4,191.4 L140.2,192.2 L139.4,193.0 L138.4,192.7 L137.8,191.9 L137.3,190.5 L135.5,189.9 L134.7,190.5 L133.7,190.0 L132.7,190.1 L133.1,188.4 L133.1,186.9 L132.3,186.6 L131.9,185.6 L132.2,184.1 L133.1,183.4 L133.3,182.4 L133.8,181.1 L133.9,180.1 L133.6,179.2 L133.6,178.3 L133.9,176.7 L133.3,175.5 L136.0,174.1 L138.1,174.8 L140.4,175.0 L142.3,175.5 L143.8,175.5 L146.6,175.7 L147.6,174.2 L148.0,169.4 L146.3,166.8 L145.1,165.6 L142.7,164.5 L142.6,162.7 L144.7,162.3 L147.4,163.0 L146.9,160.3 L148.4,161.3 L152.1,159.4 L152.5,157.4 L153.9,156.9 L155.1,156.4 L155.8,155.7 L156.9,152.0 L158.8,150.8 L160.0,150.8 L160.2,150.2 L161.4,150.0 L161.8,150.5 L162.6,149.2 L162.1,148.3 L161.9,146.9 L161.2,145.6 L160.9,143.2 L161.0,142.5 L161.3,141.7 L162.4,141.4 L162.8,140.7 L163.7,139.9 L163.9,141.1 L163.6,142.0 L163.9,142.6 L164.6,142.9 L164.5,143.8 L164.0,143.6 L163.3,145.5 L163.8,146.6 L164.0,147.6 L165.5,147.9 L165.6,148.8 L167.0,148.1 L167.6,147.3 L169.4,147.9 L170.2,148.6 L171.0,147.7 L172.9,146.1 L174.4,144.9 L175.8,144.9 L176.1,145.5 L177.4,145.1 L177.4,144.0 L179.0,142.7 L178.1,140.8 L177.6,139.0 L177.7,137.4 L178.6,136.2 L180.2,137.6 L181.1,137.2 L180.7,135.4 L180.4,134.0 L180.0,134.4 L179.0,133.9 L178.4,132.6 L179.6,131.4 L180.9,130.6 L182.3,130.5 L183.4,129.9 L184.0,128.1 L182.4,127.6 L180.6,128.6 L179.0,130.1 L177.3,131.3 L176.2,130.2 L174.9,129.8 L174.4,127.5 L173.1,125.6 L173.2,124.1 L173.6,122.3 L174.8,119.1 L175.3,118.4 L174.8,117.5 L173.1,116.9 L171.7,118.1 L171.4,120.0 L172.0,121.3 L171.1,123.7 L169.6,126.2 L169.8,129.7 L171.0,131.2 L172.5,132.2 L172.2,135.1 L171.0,136.0 L171.6,140.1 L171.4,142.4 L169.7,142.6 L169.4,144.6 L167.8,145.0 L167.0,142.8 L165.4,140.3 L163.8,137.1 L162.8,135.7 L160.7,138.8 L159.1,139.6 L157.2,138.5 L156.5,135.9 L155.7,130.4 L156.6,128.8 L159.3,126.4 L161.0,123.7 L162.2,120.1 L163.5,115.2 L164.5,113.1 L165.9,109.7 L167.2,108.2 L168.5,107.9 L168.9,105.7 L170.3,105.3 L171.3,104.3 L174.3,104.8 L173.7,105.8 L175.3,106.8 L175.6,105.7 L177.5,106.3 L179.8,105.7 L184.0,106.2 L185.3,106.7 L186.3,108.0 L186.2,109.6 L185.4,110.9 L180.8,111.5 L180.4,112.1 L182.6,112.9 L184.6,115.9 L186.1,115.9 L187.1,116.0 L186.6,114.9 L185.5,114.3 L185.6,113.3 L188.4,113.3 L188.7,112.3 L187.1,111.2 L187.5,108.1 L188.2,107.7 L189.4,107.9 L188.7,106.3 L187.2,105.6 L186.6,104.2 L185.2,103.4 L187.5,102.6 L188.8,103.3 L188.1,104.2 L189.0,105.2 L190.1,105.4 L190.8,104.1 L189.9,102.9 L190.3,100.8 L190.7,97.4 L191.2,97.1 L191.8,98.6 L192.6,98.0 L192.4,97.1 L193.3,95.9 L193.1,94.4 L194.8,94.5 L194.0,92.9 L192.4,92.7 L192.0,91.9 L193.8,90.6 L194.9,90.1 L198.6,89.1 L197.7,88.1 L196.3,88.1 L195.8,87.9 L195.2,88.5 L194.3,87.7 L192.5,87.1 L191.8,86.7 L190.4,84.6 L188.6,83.2 L188.4,82.6 L189.6,81.4 L190.8,81.9 L192.4,83.3 L193.3,83.2 L194.9,83.7 L197.8,85.3 L199.4,85.2 L200.8,86.2 L203.3,89.2 L203.9,88.5 L203.3,87.8 L203.0,86.7 L202.0,86.0 L201.2,84.9 L199.8,84.7 L198.5,83.7 L198.0,84.4 L196.8,84.0 L194.7,82.5 L192.6,82.5 L191.5,80.7 L189.9,80.2 L189.9,79.9 L191.2,80.1 L193.3,81.2 L194.0,80.8 L192.2,80.4 L191.6,79.0 L191.8,77.8 L193.4,77.1 L191.3,77.0 L188.9,76.3 L188.6,75.2 L188.9,73.9 L188.7,72.7 L187.4,72.8 L185.9,71.9 L185.9,71.3 L184.7,70.2 L184.4,68.8 L183.7,68.6 L183.4,67.3 L183.8,67.0 L182.4,65.9 L182.3,65.0 L181.2,64.9 L180.1,64.5 L178.9,63.6 L179.4,62.8 L180.2,63.4 L180.2,62.4Z" fill="#F38020" opacity="0.25"/>
  <path d="M229.5,151.4 L231.0,152.2 L231.6,151.8 L232.3,151.9 L231.4,153.0 L232.1,154.7 L232.3,155.6 L232.1,156.5 L232.7,157.4 L234.0,158.5 L235.4,157.7 L236.8,157.8 L238.8,156.4 L240.3,153.9 L240.1,153.4 L239.1,152.3 L237.9,150.2 L236.6,150.5 L236.1,148.9 L235.3,149.6 L234.4,147.8 L235.8,147.1 L236.3,145.5 L234.8,145.2 L233.7,144.5 L233.2,145.9 L234.0,147.4 L232.8,146.6 L232.4,146.2 L232.2,145.1 L231.5,144.7 L229.8,145.4 L228.1,144.2 L227.2,144.3 L226.7,143.7 L227.9,142.8 L226.9,141.4 L227.6,140.2 L228.7,139.5 L227.6,137.5 L226.5,136.5 L225.6,137.7 L224.3,138.1 L223.7,140.2 L223.0,141.5 L223.3,143.2 L222.4,144.5 L222.5,147.5 L224.8,148.5 L225.5,149.9 L228.3,151.0 L229.5,151.4Z" fill="#F38020" opacity="0.25"/>
  <path d="M119.8,68.0 L119.8,67.8 L120.0,67.0 L120.7,66.9 L120.6,67.7 L120.1,68.0 L119.8,68.0Z" fill="#F38020" opacity="0.25"/>
  <path d="M122.0,61.3 L121.7,60.4 L122.7,60.0 L123.3,60.4 L123.2,61.0 L122.6,61.5 L122.0,61.3Z" fill="#F38020" opacity="0.25"/>
  <path d="M162.3,91.2 L161.6,92.4 L160.6,92.2 L160.7,91.6 L160.1,91.0 L160.9,90.3 L161.4,91.0 L162.3,91.2Z" fill="#F38020" opacity="0.25"/>
  <path d="M123.9,61.8 L123.7,61.3 L124.0,60.7 L124.3,60.7 L124.8,61.2 L124.6,61.4 L123.9,61.8Z" fill="#F38020" opacity="0.25"/>
  <path d="M121.2,67.1 L120.8,66.5 L121.4,66.2 L122.3,66.0 L123.3,66.0 L123.1,66.5 L122.9,66.7 L122.0,67.2 L121.2,67.1Z" fill="#F38020" opacity="0.25"/>
  <path d="M122.1,65.4 L121.1,65.6 L121.5,64.9 L122.4,64.3 L122.8,63.4 L123.4,63.9 L124.1,63.5 L125.0,63.5 L124.4,64.2 L123.3,65.1 L122.1,65.4Z" fill="#F38020" opacity="0.25"/>
  <path d="M177.4,63.4 L178.9,65.6 L175.6,65.0 L175.3,64.7 L175.4,64.5 L176.4,63.4 L177.4,63.4Z" fill="#F38020" opacity="0.25"/>
  <path d="M157.8,88.3 L159.8,89.4 L159.1,90.6 L159.4,92.2 L159.1,92.7 L159.4,94.6 L158.8,94.8 L157.3,93.7 L157.5,92.9 L156.6,92.4 L155.3,90.7 L154.6,89.1 L155.5,88.1 L156.0,88.8 L156.6,88.6 L156.5,87.9 L157.1,87.7 L157.8,88.3Z" fill="#F38020" opacity="0.25"/>
  <path d="M160.0,85.9 L161.1,86.3 L161.1,87.6 L160.1,88.3 L158.7,88.3 L158.4,87.8 L157.8,87.9 L157.0,87.1 L158.0,86.2 L158.7,86.5 L158.9,85.7 L160.0,85.9Z" fill="#F38020" opacity="0.25"/>
  <path d="M167.9,80.5 L167.8,81.0 L167.7,81.4 L168.0,81.7 L167.9,82.2 L167.2,82.1 L166.8,81.5 L166.1,81.9 L166.4,81.2 L166.7,80.8 L167.3,81.2 L167.0,80.7 L166.9,80.2 L167.7,80.2 L167.9,80.5Z" fill="#F38020" opacity="0.25"/>
  <path d="M176.6,65.5 L177.0,66.3 L176.5,67.3 L175.6,67.9 L173.9,68.1 L173.5,68.5 L171.8,67.6 L171.2,66.9 L172.3,66.3 L174.4,65.5 L176.6,65.5Z" fill="#F38020" opacity="0.25"/>
  <path d="M124.9,70.1 L124.2,70.7 L123.4,70.3 L121.6,69.8 L121.4,69.1 L121.7,68.3 L122.8,67.8 L123.6,67.7 L124.2,68.0 L124.3,67.3 L125.1,66.9 L126.2,66.7 L127.3,66.9 L128.0,67.1 L128.1,67.4 L128.7,67.2 L128.7,67.9 L127.4,68.4 L126.9,69.0 L126.5,69.6 L124.9,70.1Z" fill="#F38020" opacity="0.25"/>
  <path d="M134.4,73.3 L134.5,73.9 L134.5,74.5 L134.2,75.2 L133.6,75.5 L132.3,75.4 L131.5,75.0 L130.9,75.0 L131.2,75.6 L129.5,75.5 L128.6,75.3 L126.5,75.5 L125.9,74.9 L125.3,74.9 L124.7,73.9 L124.6,74.5 L124.1,74.4 L123.1,75.0 L122.1,74.9 L121.3,74.5 L120.3,74.6 L119.5,74.2 L119.0,74.4 L119.3,75.1 L118.7,75.3 L117.0,74.5 L117.4,73.2 L116.9,71.9 L117.2,71.1 L117.3,70.2 L118.4,70.0 L119.0,70.7 L120.7,70.3 L120.8,70.5 L119.9,71.8 L121.4,70.9 L121.8,70.2 L122.7,70.4 L123.4,71.0 L124.2,70.9 L125.1,70.3 L126.3,69.9 L126.3,70.9 L126.1,71.2 L127.0,71.5 L127.2,70.7 L127.0,69.6 L127.8,69.0 L128.7,68.6 L129.4,68.2 L130.3,68.1 L130.7,68.5 L130.8,68.8 L131.2,69.3 L132.2,69.5 L132.1,69.9 L131.4,70.2 L132.8,70.2 L133.2,70.4 L133.5,70.8 L133.8,71.5 L133.6,71.7 L134.2,72.2 L134.3,72.8 L134.4,73.3Z" fill="#F38020" opacity="0.25"/>
  <path d="M142.8,79.6 L143.7,81.8 L142.8,82.4 L141.6,82.0 L140.0,81.5 L139.9,81.9 L141.0,82.2 L141.6,83.2 L142.5,82.8 L142.4,83.7 L141.5,84.7 L142.7,84.2 L144.6,83.9 L145.5,84.5 L145.5,85.4 L143.6,86.6 L143.2,87.0 L141.8,87.1 L142.7,87.4 L141.7,88.8 L140.8,90.1 L139.9,92.4 L140.0,94.0 L139.2,93.9 L138.0,94.3 L138.6,95.7 L138.0,97.6 L137.3,97.6 L137.4,99.7 L136.0,99.4 L136.4,100.6 L135.9,101.3 L134.8,101.3 L133.9,101.0 L134.1,102.7 L133.7,103.7 L132.8,102.4 L132.2,102.8 L132.9,103.7 L133.2,105.3 L132.8,107.2 L131.3,107.2 L131.1,106.1 L130.8,104.5 L130.3,106.1 L129.0,106.9 L130.9,107.7 L131.9,108.2 L129.0,109.4 L126.1,110.2 L123.4,109.9 L122.5,109.5 L121.3,109.9 L118.8,111.5 L116.2,112.0 L115.6,111.7 L114.2,111.6 L112.8,111.3 L111.2,112.0 L110.2,113.4 L108.8,114.4 L106.3,115.0 L105.5,116.8 L103.9,118.1 L102.1,119.7 L100.7,118.9 L100.7,116.3 L99.1,114.8 L99.3,113.1 L100.4,110.9 L101.2,107.5 L102.0,106.0 L103.5,104.4 L104.3,102.0 L105.8,101.0 L106.1,100.0 L108.8,98.7 L110.3,98.9 L111.2,98.4 L112.7,97.2 L111.5,97.2 L110.9,97.2 L110.2,96.9 L110.2,95.7 L111.4,94.6 L112.6,94.0 L113.1,94.4 L113.6,95.9 L113.9,94.0 L114.1,93.0 L113.4,92.7 L113.5,91.9 L115.8,91.1 L116.3,90.2 L117.3,88.8 L118.9,86.7 L119.3,85.7 L120.1,85.1 L120.5,83.2 L120.1,82.2 L119.3,81.1 L118.6,80.1 L119.1,79.3 L120.2,77.9 L121.4,78.7 L121.9,79.5 L121.6,77.5 L122.2,76.2 L123.1,76.0 L124.8,76.9 L126.5,77.7 L127.4,77.4 L127.7,76.2 L128.7,76.1 L130.8,76.3 L131.3,76.6 L132.2,76.0 L133.1,76.3 L134.0,76.8 L134.6,77.5 L134.2,78.1 L135.8,77.9 L135.6,79.0 L135.8,79.4 L135.8,80.3 L136.1,79.0 L136.9,78.3 L138.7,78.0 L139.3,78.6 L140.2,78.2 L141.1,78.5 L142.8,79.6Z" fill="#F38020" opacity="0.25"/>
  <!-- UK — highlighted like weather map -->
  <path d="M141.1,149.9 L140.1,149.3 L139.2,149.3 L139.6,148.0 L139.5,146.7 L140.6,146.7 L142.0,148.3 L141.1,149.9Z" fill="#F38020" opacity="0.85" stroke="#F38020" stroke-width="1.5"/>
  <path d="M145.5,151.4 L145.5,151.4 L145.8,149.9 L144.9,148.4 L144.9,148.4 L143.2,147.8 L142.9,147.2 L143.5,146.1 L143.1,145.4 L142.2,146.5 L142.4,144.1 L141.8,142.8 L142.5,140.4 L143.6,138.5 L144.6,138.7 L146.2,138.6 L144.7,141.2 L146.0,140.9 L147.4,141.0 L147.0,142.9 L145.7,145.1 L147.1,145.3 L147.2,145.6 L148.4,148.5 L149.4,148.9 L150.3,151.6 L150.7,152.6 L152.5,153.1 L152.3,154.6 L151.6,155.3 L152.2,156.6 L150.9,157.9 L148.8,157.9 L146.1,158.5 L145.4,158.0 L144.3,159.1 L142.9,158.7 L141.8,159.6 L141.0,159.0 L143.4,156.6 L144.8,156.2 L144.8,156.2 L142.4,155.6 L142.1,154.6 L143.7,154.0 L143.0,152.6 L143.3,151.0 L145.5,151.4Z" fill="#F38020" opacity="0.85" stroke="#F38020" stroke-width="1.5"/>
  <path d="M141.1,149.9 L141.2,151.7 L139.9,153.8 L137.1,154.9 L135.0,154.3 L136.5,151.9 L136.1,149.3 L138.3,147.7 L139.5,146.7 L139.6,148.0 L139.2,149.3 L140.1,149.3 L141.1,149.9Z" fill="#F38020" opacity="0.55"/>
  <!-- Isobar-style concentric rings from London -->
  <circle cx="150.0" cy="156.1" r="12" stroke="#F38020" stroke-width="0.6" fill="none" opacity="0.40" stroke-dasharray="2,3"/>
  <circle cx="150.0" cy="156.1" r="24" stroke="#F38020" stroke-width="0.6" fill="none" opacity="0.35" stroke-dasharray="2,3"/>
  <circle cx="150.0" cy="156.1" r="40" stroke="#F38020" stroke-width="0.6" fill="none" opacity="0.30" stroke-dasharray="2,3"/>
  <circle cx="150.0" cy="156.1" r="60" stroke="#F38020" stroke-width="0.6" fill="none" opacity="0.25" stroke-dasharray="2,3"/>
  <circle cx="150.0" cy="156.1" r="85" stroke="#F38020" stroke-width="0.6" fill="none" opacity="0.20" stroke-dasharray="2,3"/>
  <circle cx="150.0" cy="156.1" r="115" stroke="#F38020" stroke-width="0.6" fill="none" opacity="0.15" stroke-dasharray="2,3"/>
  <!-- London marker -->
  <circle cx="150.0" cy="156.1" r="5" fill="#F38020" opacity="1"/>
  <circle cx="150.0" cy="156.1" r="10" stroke="#F38020" stroke-width="1" fill="none" opacity="0.7"/>
</svg>